<mxfile host="Electron" agent="Mozilla/5.0 (Windows NT 10.0; Win64; x64) AppleWebKit/537.36 (KHTML, like Gecko) draw.io/24.7.17 Chrome/128.0.6613.36 Electron/32.0.1 Safari/537.36" version="24.7.17" pages="2">
  <diagram name="Page-1" id="4JEHYY-r7kARy0x_aL2q">
    <mxGraphModel dx="1909" dy="3344" grid="1" gridSize="10" guides="1" tooltips="1" connect="1" arrows="1" fold="1" page="1" pageScale="1" pageWidth="850" pageHeight="1100" math="0" shadow="0">
      <root>
        <mxCell id="0" />
        <mxCell id="1" parent="0" />
        <mxCell id="XK6V45ikK95n-LF6XOaC-1" value="" style="rounded=0;whiteSpace=wrap;html=1;" parent="1" vertex="1">
          <mxGeometry x="80" y="80" width="650" height="370" as="geometry" />
        </mxCell>
        <mxCell id="XK6V45ikK95n-LF6XOaC-2" value="" style="rounded=0;whiteSpace=wrap;html=1;" parent="1" vertex="1">
          <mxGeometry x="80" y="80" width="580" height="60" as="geometry" />
        </mxCell>
        <mxCell id="XK6V45ikK95n-LF6XOaC-3" value="" style="rounded=0;whiteSpace=wrap;html=1;" parent="1" vertex="1">
          <mxGeometry x="660" y="80" width="70" height="370" as="geometry" />
        </mxCell>
        <mxCell id="XK6V45ikK95n-LF6XOaC-5" value="" style="rounded=0;whiteSpace=wrap;html=1;" parent="1" vertex="1">
          <mxGeometry x="660" y="80" width="70" height="60" as="geometry" />
        </mxCell>
        <mxCell id="XK6V45ikK95n-LF6XOaC-6" value="&lt;font style=&quot;font-size: 17px;&quot;&gt;&lt;b&gt;Navbar&lt;/b&gt;&lt;/font&gt;" style="text;html=1;align=center;verticalAlign=middle;whiteSpace=wrap;rounded=0;" parent="1" vertex="1">
          <mxGeometry x="100" y="95" width="60" height="30" as="geometry" />
        </mxCell>
        <mxCell id="XK6V45ikK95n-LF6XOaC-33" value="" style="edgeStyle=orthogonalEdgeStyle;rounded=0;orthogonalLoop=1;jettySize=auto;html=1;" parent="1" source="XK6V45ikK95n-LF6XOaC-9" target="XK6V45ikK95n-LF6XOaC-15" edge="1">
          <mxGeometry relative="1" as="geometry">
            <Array as="points">
              <mxPoint x="235" y="35" />
              <mxPoint x="280" y="35" />
            </Array>
          </mxGeometry>
        </mxCell>
        <mxCell id="XK6V45ikK95n-LF6XOaC-9" value="" style="rounded=0;whiteSpace=wrap;html=1;" parent="1" vertex="1">
          <mxGeometry x="190" y="80" width="90" height="60" as="geometry" />
        </mxCell>
        <mxCell id="XK6V45ikK95n-LF6XOaC-7" value="&lt;span style=&quot;font-size: 17px;&quot;&gt;&lt;b&gt;ورود دبیر&lt;/b&gt;&lt;/span&gt;" style="text;html=1;align=center;verticalAlign=middle;whiteSpace=wrap;rounded=0;" parent="1" vertex="1">
          <mxGeometry x="205" y="95" width="60" height="30" as="geometry" />
        </mxCell>
        <mxCell id="XK6V45ikK95n-LF6XOaC-11" value="" style="rounded=0;whiteSpace=wrap;html=1;" parent="1" vertex="1">
          <mxGeometry x="280" y="80" width="110" height="60" as="geometry" />
        </mxCell>
        <mxCell id="XK6V45ikK95n-LF6XOaC-8" value="&lt;font style=&quot;font-size: 17px;&quot;&gt;&lt;b&gt;ورود دانش اموز&lt;/b&gt;&lt;/font&gt;" style="text;html=1;align=center;verticalAlign=middle;whiteSpace=wrap;rounded=0;" parent="1" vertex="1">
          <mxGeometry x="285" y="95" width="100" height="30" as="geometry" />
        </mxCell>
        <mxCell id="XK6V45ikK95n-LF6XOaC-15" value="" style="rounded=0;whiteSpace=wrap;html=1;" parent="1" vertex="1">
          <mxGeometry x="80" y="-380" width="650" height="370" as="geometry" />
        </mxCell>
        <mxCell id="XK6V45ikK95n-LF6XOaC-16" value="" style="rounded=0;whiteSpace=wrap;html=1;" parent="1" vertex="1">
          <mxGeometry x="80" y="-380" width="580" height="60" as="geometry" />
        </mxCell>
        <mxCell id="XK6V45ikK95n-LF6XOaC-17" value="" style="rounded=0;whiteSpace=wrap;html=1;" parent="1" vertex="1">
          <mxGeometry x="660" y="-380" width="70" height="370" as="geometry" />
        </mxCell>
        <mxCell id="XK6V45ikK95n-LF6XOaC-18" value="" style="rounded=0;whiteSpace=wrap;html=1;" parent="1" vertex="1">
          <mxGeometry x="660" y="-380" width="70" height="60" as="geometry" />
        </mxCell>
        <mxCell id="XK6V45ikK95n-LF6XOaC-19" value="&lt;font style=&quot;font-size: 17px;&quot;&gt;&lt;b&gt;Navbar&lt;/b&gt;&lt;/font&gt;" style="text;html=1;align=center;verticalAlign=middle;whiteSpace=wrap;rounded=0;" parent="1" vertex="1">
          <mxGeometry x="100" y="-365" width="60" height="30" as="geometry" />
        </mxCell>
        <mxCell id="XK6V45ikK95n-LF6XOaC-24" value="" style="rounded=0;whiteSpace=wrap;html=1;" parent="1" vertex="1">
          <mxGeometry x="80" y="510" width="650" height="370" as="geometry" />
        </mxCell>
        <mxCell id="XK6V45ikK95n-LF6XOaC-25" value="" style="rounded=0;whiteSpace=wrap;html=1;" parent="1" vertex="1">
          <mxGeometry x="80" y="510" width="580" height="60" as="geometry" />
        </mxCell>
        <mxCell id="XK6V45ikK95n-LF6XOaC-26" value="" style="rounded=0;whiteSpace=wrap;html=1;" parent="1" vertex="1">
          <mxGeometry x="660" y="510" width="70" height="370" as="geometry" />
        </mxCell>
        <mxCell id="XK6V45ikK95n-LF6XOaC-27" value="" style="rounded=0;whiteSpace=wrap;html=1;" parent="1" vertex="1">
          <mxGeometry x="660" y="510" width="70" height="60" as="geometry" />
        </mxCell>
        <mxCell id="XK6V45ikK95n-LF6XOaC-28" value="&lt;font style=&quot;font-size: 17px;&quot;&gt;&lt;b&gt;Navbar&lt;/b&gt;&lt;/font&gt;" style="text;html=1;align=center;verticalAlign=middle;whiteSpace=wrap;rounded=0;" parent="1" vertex="1">
          <mxGeometry x="100" y="525" width="60" height="30" as="geometry" />
        </mxCell>
        <mxCell id="XK6V45ikK95n-LF6XOaC-35" value="کلاس ها" style="rounded=0;whiteSpace=wrap;html=1;" parent="1" vertex="1">
          <mxGeometry x="660" y="-270" width="70" height="50" as="geometry" />
        </mxCell>
        <mxCell id="7epev9RCpwERPL40yu5S-199" style="edgeStyle=orthogonalEdgeStyle;rounded=0;orthogonalLoop=1;jettySize=auto;html=1;entryX=0;entryY=0.75;entryDx=0;entryDy=0;" parent="1" source="XK6V45ikK95n-LF6XOaC-37" target="7epev9RCpwERPL40yu5S-192" edge="1">
          <mxGeometry relative="1" as="geometry" />
        </mxCell>
        <mxCell id="XK6V45ikK95n-LF6XOaC-37" value="داشبورد" style="rounded=0;whiteSpace=wrap;html=1;" parent="1" vertex="1">
          <mxGeometry x="660" y="-320" width="70" height="50" as="geometry" />
        </mxCell>
        <mxCell id="7epev9RCpwERPL40yu5S-2" value="" style="rounded=0;whiteSpace=wrap;html=1;" parent="1" vertex="1">
          <mxGeometry x="800" y="-380" width="650" height="370" as="geometry" />
        </mxCell>
        <mxCell id="7epev9RCpwERPL40yu5S-3" value="" style="rounded=0;whiteSpace=wrap;html=1;" parent="1" vertex="1">
          <mxGeometry x="800" y="-380" width="580" height="60" as="geometry" />
        </mxCell>
        <mxCell id="7epev9RCpwERPL40yu5S-4" value="" style="rounded=0;whiteSpace=wrap;html=1;" parent="1" vertex="1">
          <mxGeometry x="1380" y="-380" width="70" height="370" as="geometry" />
        </mxCell>
        <mxCell id="7epev9RCpwERPL40yu5S-5" value="" style="rounded=0;whiteSpace=wrap;html=1;" parent="1" vertex="1">
          <mxGeometry x="1380" y="-380" width="70" height="60" as="geometry" />
        </mxCell>
        <mxCell id="7epev9RCpwERPL40yu5S-6" value="&lt;font style=&quot;font-size: 17px;&quot;&gt;&lt;b&gt;Navbar&lt;/b&gt;&lt;/font&gt;" style="text;html=1;align=center;verticalAlign=middle;whiteSpace=wrap;rounded=0;" parent="1" vertex="1">
          <mxGeometry x="820" y="-365" width="60" height="30" as="geometry" />
        </mxCell>
        <mxCell id="7epev9RCpwERPL40yu5S-8" value="داشبورد" style="rounded=0;whiteSpace=wrap;html=1;" parent="1" vertex="1">
          <mxGeometry x="1380" y="-320" width="70" height="50" as="geometry" />
        </mxCell>
        <mxCell id="7epev9RCpwERPL40yu5S-9" style="edgeStyle=orthogonalEdgeStyle;rounded=0;orthogonalLoop=1;jettySize=auto;html=1;entryX=0.005;entryY=0.393;entryDx=0;entryDy=0;entryPerimeter=0;" parent="1" source="XK6V45ikK95n-LF6XOaC-35" target="7epev9RCpwERPL40yu5S-2" edge="1">
          <mxGeometry relative="1" as="geometry" />
        </mxCell>
        <mxCell id="7epev9RCpwERPL40yu5S-10" value="" style="rounded=1;whiteSpace=wrap;html=1;" parent="1" vertex="1">
          <mxGeometry x="820" y="-260" width="100" height="50" as="geometry" />
        </mxCell>
        <mxCell id="7epev9RCpwERPL40yu5S-11" value="" style="rounded=1;whiteSpace=wrap;html=1;" parent="1" vertex="1">
          <mxGeometry x="960" y="-260" width="100" height="50" as="geometry" />
        </mxCell>
        <mxCell id="7epev9RCpwERPL40yu5S-12" value="" style="rounded=1;whiteSpace=wrap;html=1;" parent="1" vertex="1">
          <mxGeometry x="1240" y="-260" width="100" height="50" as="geometry" />
        </mxCell>
        <mxCell id="7epev9RCpwERPL40yu5S-13" value="" style="rounded=1;whiteSpace=wrap;html=1;" parent="1" vertex="1">
          <mxGeometry x="1100" y="-260" width="100" height="50" as="geometry" />
        </mxCell>
        <mxCell id="7epev9RCpwERPL40yu5S-14" value="&lt;font style=&quot;font-size: 18px;&quot;&gt;&lt;b&gt;کلاس ها&lt;/b&gt;&lt;/font&gt;" style="text;html=1;align=center;verticalAlign=middle;whiteSpace=wrap;rounded=0;" parent="1" vertex="1">
          <mxGeometry x="1060" y="-310" width="60" height="30" as="geometry" />
        </mxCell>
        <mxCell id="7epev9RCpwERPL40yu5S-15" value="" style="rounded=0;whiteSpace=wrap;html=1;" parent="1" vertex="1">
          <mxGeometry x="1520" y="-380" width="650" height="370" as="geometry" />
        </mxCell>
        <mxCell id="7epev9RCpwERPL40yu5S-16" value="" style="rounded=0;whiteSpace=wrap;html=1;" parent="1" vertex="1">
          <mxGeometry x="1520" y="-380" width="580" height="60" as="geometry" />
        </mxCell>
        <mxCell id="7epev9RCpwERPL40yu5S-17" value="" style="rounded=0;whiteSpace=wrap;html=1;" parent="1" vertex="1">
          <mxGeometry x="2100" y="-380" width="70" height="370" as="geometry" />
        </mxCell>
        <mxCell id="7epev9RCpwERPL40yu5S-18" value="" style="rounded=0;whiteSpace=wrap;html=1;" parent="1" vertex="1">
          <mxGeometry x="2100" y="-380" width="70" height="60" as="geometry" />
        </mxCell>
        <mxCell id="7epev9RCpwERPL40yu5S-19" value="&lt;font style=&quot;font-size: 17px;&quot;&gt;&lt;b&gt;Navbar&lt;/b&gt;&lt;/font&gt;" style="text;html=1;align=center;verticalAlign=middle;whiteSpace=wrap;rounded=0;" parent="1" vertex="1">
          <mxGeometry x="1540" y="-365" width="60" height="30" as="geometry" />
        </mxCell>
        <mxCell id="7epev9RCpwERPL40yu5S-20" value="کلاس ها" style="rounded=0;whiteSpace=wrap;html=1;" parent="1" vertex="1">
          <mxGeometry x="2100" y="-270" width="70" height="50" as="geometry" />
        </mxCell>
        <mxCell id="7epev9RCpwERPL40yu5S-21" value="داشبورد" style="rounded=0;whiteSpace=wrap;html=1;" parent="1" vertex="1">
          <mxGeometry x="2100" y="-320" width="70" height="50" as="geometry" />
        </mxCell>
        <mxCell id="7epev9RCpwERPL40yu5S-22" style="edgeStyle=orthogonalEdgeStyle;rounded=0;orthogonalLoop=1;jettySize=auto;html=1;entryX=-0.006;entryY=0.395;entryDx=0;entryDy=0;entryPerimeter=0;" parent="1" source="7epev9RCpwERPL40yu5S-12" target="7epev9RCpwERPL40yu5S-15" edge="1">
          <mxGeometry relative="1" as="geometry" />
        </mxCell>
        <mxCell id="7epev9RCpwERPL40yu5S-43" value="لیست دانش اموزان" style="swimlane;fontStyle=0;childLayout=stackLayout;horizontal=1;startSize=30;horizontalStack=0;resizeParent=1;resizeParentMax=0;resizeLast=0;collapsible=1;marginBottom=0;whiteSpace=wrap;html=1;" parent="1" vertex="1">
          <mxGeometry x="1540" y="-300" width="150" height="270" as="geometry" />
        </mxCell>
        <mxCell id="7epev9RCpwERPL40yu5S-46" value="Item 3" style="text;strokeColor=none;fillColor=none;align=center;verticalAlign=middle;spacingLeft=4;spacingRight=4;overflow=hidden;points=[[0,0.5],[1,0.5]];portConstraint=eastwest;rotatable=0;whiteSpace=wrap;html=1;" parent="7epev9RCpwERPL40yu5S-43" vertex="1">
          <mxGeometry y="30" width="150" height="30" as="geometry" />
        </mxCell>
        <mxCell id="7epev9RCpwERPL40yu5S-51" value="Item 2" style="text;strokeColor=none;fillColor=none;align=center;verticalAlign=middle;spacingLeft=4;spacingRight=4;overflow=hidden;points=[[0,0.5],[1,0.5]];portConstraint=eastwest;rotatable=0;whiteSpace=wrap;html=1;" parent="7epev9RCpwERPL40yu5S-43" vertex="1">
          <mxGeometry y="60" width="150" height="30" as="geometry" />
        </mxCell>
        <mxCell id="7epev9RCpwERPL40yu5S-44" value="Item 1" style="text;strokeColor=none;fillColor=none;align=center;verticalAlign=middle;spacingLeft=4;spacingRight=4;overflow=hidden;points=[[0,0.5],[1,0.5]];portConstraint=eastwest;rotatable=0;whiteSpace=wrap;html=1;" parent="7epev9RCpwERPL40yu5S-43" vertex="1">
          <mxGeometry y="90" width="150" height="30" as="geometry" />
        </mxCell>
        <mxCell id="7epev9RCpwERPL40yu5S-50" value="Item 2" style="text;strokeColor=none;fillColor=none;align=center;verticalAlign=middle;spacingLeft=4;spacingRight=4;overflow=hidden;points=[[0,0.5],[1,0.5]];portConstraint=eastwest;rotatable=0;whiteSpace=wrap;html=1;" parent="7epev9RCpwERPL40yu5S-43" vertex="1">
          <mxGeometry y="120" width="150" height="30" as="geometry" />
        </mxCell>
        <mxCell id="7epev9RCpwERPL40yu5S-48" value="Item 2" style="text;strokeColor=none;fillColor=none;align=center;verticalAlign=middle;spacingLeft=4;spacingRight=4;overflow=hidden;points=[[0,0.5],[1,0.5]];portConstraint=eastwest;rotatable=0;whiteSpace=wrap;html=1;" parent="7epev9RCpwERPL40yu5S-43" vertex="1">
          <mxGeometry y="150" width="150" height="30" as="geometry" />
        </mxCell>
        <mxCell id="7epev9RCpwERPL40yu5S-45" value="Item 2" style="text;strokeColor=none;fillColor=none;align=center;verticalAlign=middle;spacingLeft=4;spacingRight=4;overflow=hidden;points=[[0,0.5],[1,0.5]];portConstraint=eastwest;rotatable=0;whiteSpace=wrap;html=1;" parent="7epev9RCpwERPL40yu5S-43" vertex="1">
          <mxGeometry y="180" width="150" height="30" as="geometry" />
        </mxCell>
        <mxCell id="7epev9RCpwERPL40yu5S-47" value="Item 2" style="text;strokeColor=none;fillColor=none;align=center;verticalAlign=middle;spacingLeft=4;spacingRight=4;overflow=hidden;points=[[0,0.5],[1,0.5]];portConstraint=eastwest;rotatable=0;whiteSpace=wrap;html=1;" parent="7epev9RCpwERPL40yu5S-43" vertex="1">
          <mxGeometry y="210" width="150" height="30" as="geometry" />
        </mxCell>
        <mxCell id="7epev9RCpwERPL40yu5S-49" value="Item 2" style="text;strokeColor=none;fillColor=none;align=center;verticalAlign=middle;spacingLeft=4;spacingRight=4;overflow=hidden;points=[[0,0.5],[1,0.5]];portConstraint=eastwest;rotatable=0;whiteSpace=wrap;html=1;" parent="7epev9RCpwERPL40yu5S-43" vertex="1">
          <mxGeometry y="240" width="150" height="30" as="geometry" />
        </mxCell>
        <mxCell id="7epev9RCpwERPL40yu5S-53" value="&lt;span style=&quot;font-size: 17px;&quot;&gt;جانما کلاس&lt;/span&gt;" style="rounded=1;whiteSpace=wrap;html=1;" parent="1" vertex="1">
          <mxGeometry x="2000" y="-132.5" width="90" height="40" as="geometry" />
        </mxCell>
        <mxCell id="7epev9RCpwERPL40yu5S-55" value="" style="rounded=0;whiteSpace=wrap;html=1;" parent="1" vertex="1">
          <mxGeometry x="2250" y="-380" width="650" height="370" as="geometry" />
        </mxCell>
        <mxCell id="7epev9RCpwERPL40yu5S-56" value="" style="rounded=0;whiteSpace=wrap;html=1;" parent="1" vertex="1">
          <mxGeometry x="2250" y="-380" width="580" height="60" as="geometry" />
        </mxCell>
        <mxCell id="7epev9RCpwERPL40yu5S-57" value="" style="rounded=0;whiteSpace=wrap;html=1;" parent="1" vertex="1">
          <mxGeometry x="2830" y="-380" width="70" height="370" as="geometry" />
        </mxCell>
        <mxCell id="7epev9RCpwERPL40yu5S-58" value="" style="rounded=0;whiteSpace=wrap;html=1;" parent="1" vertex="1">
          <mxGeometry x="2830" y="-380" width="70" height="60" as="geometry" />
        </mxCell>
        <mxCell id="7epev9RCpwERPL40yu5S-59" value="&lt;font style=&quot;font-size: 17px;&quot;&gt;&lt;b&gt;Navbar&lt;/b&gt;&lt;/font&gt;" style="text;html=1;align=center;verticalAlign=middle;whiteSpace=wrap;rounded=0;" parent="1" vertex="1">
          <mxGeometry x="2270" y="-365" width="60" height="30" as="geometry" />
        </mxCell>
        <mxCell id="7epev9RCpwERPL40yu5S-60" value="کلاس ها" style="rounded=0;whiteSpace=wrap;html=1;" parent="1" vertex="1">
          <mxGeometry x="2830" y="-270" width="70" height="50" as="geometry" />
        </mxCell>
        <mxCell id="7epev9RCpwERPL40yu5S-61" value="داشبورد" style="rounded=0;whiteSpace=wrap;html=1;" parent="1" vertex="1">
          <mxGeometry x="2830" y="-320" width="70" height="50" as="geometry" />
        </mxCell>
        <mxCell id="7epev9RCpwERPL40yu5S-62" style="edgeStyle=orthogonalEdgeStyle;rounded=0;orthogonalLoop=1;jettySize=auto;html=1;entryX=0;entryY=0.865;entryDx=0;entryDy=0;entryPerimeter=0;" parent="1" source="7epev9RCpwERPL40yu5S-53" target="7epev9RCpwERPL40yu5S-55" edge="1">
          <mxGeometry relative="1" as="geometry" />
        </mxCell>
        <mxCell id="7epev9RCpwERPL40yu5S-64" value="" style="rounded=1;whiteSpace=wrap;html=1;" parent="1" vertex="1">
          <mxGeometry x="2380" y="-310" width="360" height="290" as="geometry" />
        </mxCell>
        <mxCell id="7epev9RCpwERPL40yu5S-67" value="" style="verticalLabelPosition=bottom;html=1;verticalAlign=top;align=center;shape=mxgraph.floorplan.chair;rotation=-180;" parent="1" vertex="1">
          <mxGeometry x="2410" y="-211" width="31" height="32" as="geometry" />
        </mxCell>
        <mxCell id="7epev9RCpwERPL40yu5S-68" value="" style="verticalLabelPosition=bottom;html=1;verticalAlign=top;align=center;shape=mxgraph.floorplan.chair;rotation=-180;" parent="1" vertex="1">
          <mxGeometry x="2410" y="-150" width="31" height="32" as="geometry" />
        </mxCell>
        <mxCell id="7epev9RCpwERPL40yu5S-69" value="" style="verticalLabelPosition=bottom;html=1;verticalAlign=top;align=center;shape=mxgraph.floorplan.chair;rotation=-180;" parent="1" vertex="1">
          <mxGeometry x="2410" y="-92" width="31" height="32" as="geometry" />
        </mxCell>
        <mxCell id="7epev9RCpwERPL40yu5S-70" value="" style="verticalLabelPosition=bottom;html=1;verticalAlign=top;align=center;shape=mxgraph.floorplan.chair;rotation=-180;" parent="1" vertex="1">
          <mxGeometry x="2410" y="-270" width="31" height="32" as="geometry" />
        </mxCell>
        <mxCell id="7epev9RCpwERPL40yu5S-71" value="" style="verticalLabelPosition=bottom;html=1;verticalAlign=top;align=center;shape=mxgraph.floorplan.chair;rotation=-180;" parent="1" vertex="1">
          <mxGeometry x="2540" y="-270" width="31" height="32" as="geometry" />
        </mxCell>
        <mxCell id="7epev9RCpwERPL40yu5S-72" value="" style="verticalLabelPosition=bottom;html=1;verticalAlign=top;align=center;shape=mxgraph.floorplan.chair;rotation=-180;" parent="1" vertex="1">
          <mxGeometry x="2540" y="-210" width="31" height="32" as="geometry" />
        </mxCell>
        <mxCell id="7epev9RCpwERPL40yu5S-73" value="" style="verticalLabelPosition=bottom;html=1;verticalAlign=top;align=center;shape=mxgraph.floorplan.chair;rotation=-180;" parent="1" vertex="1">
          <mxGeometry x="2540" y="-150" width="31" height="32" as="geometry" />
        </mxCell>
        <mxCell id="7epev9RCpwERPL40yu5S-74" value="" style="verticalLabelPosition=bottom;html=1;verticalAlign=top;align=center;shape=mxgraph.floorplan.chair;rotation=-180;" parent="1" vertex="1">
          <mxGeometry x="2540" y="-92" width="31" height="32" as="geometry" />
        </mxCell>
        <mxCell id="7epev9RCpwERPL40yu5S-75" value="" style="verticalLabelPosition=bottom;html=1;verticalAlign=top;align=center;shape=mxgraph.floorplan.chair;rotation=-180;" parent="1" vertex="1">
          <mxGeometry x="2660" y="-270" width="31" height="32" as="geometry" />
        </mxCell>
        <mxCell id="7epev9RCpwERPL40yu5S-76" value="" style="verticalLabelPosition=bottom;html=1;verticalAlign=top;align=center;shape=mxgraph.floorplan.chair;rotation=-180;" parent="1" vertex="1">
          <mxGeometry x="2660" y="-211" width="31" height="32" as="geometry" />
        </mxCell>
        <mxCell id="7epev9RCpwERPL40yu5S-77" value="" style="verticalLabelPosition=bottom;html=1;verticalAlign=top;align=center;shape=mxgraph.floorplan.chair;rotation=-180;" parent="1" vertex="1">
          <mxGeometry x="2660" y="-150" width="31" height="32" as="geometry" />
        </mxCell>
        <mxCell id="7epev9RCpwERPL40yu5S-78" value="" style="verticalLabelPosition=bottom;html=1;verticalAlign=top;align=center;shape=mxgraph.floorplan.chair;rotation=-180;" parent="1" vertex="1">
          <mxGeometry x="2660" y="-92" width="31" height="32" as="geometry" />
        </mxCell>
        <mxCell id="7epev9RCpwERPL40yu5S-79" value="&lt;font style=&quot;font-size: 17px;&quot;&gt;جانما&lt;/font&gt;" style="text;html=1;align=center;verticalAlign=middle;whiteSpace=wrap;rounded=0;" parent="1" vertex="1">
          <mxGeometry x="2750" y="-300" width="60" height="30" as="geometry" />
        </mxCell>
        <mxCell id="7epev9RCpwERPL40yu5S-80" value="" style="ellipse;whiteSpace=wrap;html=1;aspect=fixed;" parent="1" vertex="1">
          <mxGeometry x="2260" y="-220" width="15" height="15" as="geometry" />
        </mxCell>
        <mxCell id="7epev9RCpwERPL40yu5S-81" value="" style="ellipse;whiteSpace=wrap;html=1;aspect=fixed;" parent="1" vertex="1">
          <mxGeometry x="2260" y="-187.5" width="15" height="15" as="geometry" />
        </mxCell>
        <mxCell id="7epev9RCpwERPL40yu5S-82" value="" style="ellipse;whiteSpace=wrap;html=1;aspect=fixed;" parent="1" vertex="1">
          <mxGeometry x="2260" y="-155" width="15" height="15" as="geometry" />
        </mxCell>
        <mxCell id="7epev9RCpwERPL40yu5S-83" value="" style="ellipse;whiteSpace=wrap;html=1;aspect=fixed;" parent="1" vertex="1">
          <mxGeometry x="2260" y="-115" width="15" height="15" as="geometry" />
        </mxCell>
        <mxCell id="7epev9RCpwERPL40yu5S-84" value="" style="ellipse;whiteSpace=wrap;html=1;aspect=fixed;" parent="1" vertex="1">
          <mxGeometry x="2260" y="-76.5" width="15" height="15" as="geometry" />
        </mxCell>
        <mxCell id="7epev9RCpwERPL40yu5S-85" value="اعمال" style="rounded=1;whiteSpace=wrap;html=1;" parent="1" vertex="1">
          <mxGeometry x="2290" y="-50" width="60" height="30" as="geometry" />
        </mxCell>
        <mxCell id="7epev9RCpwERPL40yu5S-86" value="فیلتر بر اساس" style="rounded=1;whiteSpace=wrap;html=1;arcSize=0;" parent="1" vertex="1">
          <mxGeometry x="2290" y="-300" width="60" height="40" as="geometry" />
        </mxCell>
        <mxCell id="7epev9RCpwERPL40yu5S-87" value="قد" style="text;html=1;align=center;verticalAlign=middle;whiteSpace=wrap;rounded=0;" parent="1" vertex="1">
          <mxGeometry x="2290" y="-227" width="60" height="30" as="geometry" />
        </mxCell>
        <mxCell id="7epev9RCpwERPL40yu5S-88" value="نمره" style="text;html=1;align=center;verticalAlign=middle;whiteSpace=wrap;rounded=0;" parent="1" vertex="1">
          <mxGeometry x="2290" y="-195" width="60" height="30" as="geometry" />
        </mxCell>
        <mxCell id="7epev9RCpwERPL40yu5S-89" value="تاریخ تولد" style="text;html=1;align=center;verticalAlign=middle;whiteSpace=wrap;rounded=0;" parent="1" vertex="1">
          <mxGeometry x="2290" y="-162.5" width="60" height="30" as="geometry" />
        </mxCell>
        <mxCell id="7epev9RCpwERPL40yu5S-90" value="اسم" style="text;html=1;align=center;verticalAlign=middle;whiteSpace=wrap;rounded=0;" parent="1" vertex="1">
          <mxGeometry x="2290" y="-122.5" width="60" height="30" as="geometry" />
        </mxCell>
        <mxCell id="7epev9RCpwERPL40yu5S-92" value="-----" style="text;html=1;align=center;verticalAlign=middle;whiteSpace=wrap;rounded=0;" parent="1" vertex="1">
          <mxGeometry x="2290" y="-84" width="60" height="30" as="geometry" />
        </mxCell>
        <mxCell id="7epev9RCpwERPL40yu5S-103" style="edgeStyle=orthogonalEdgeStyle;rounded=0;orthogonalLoop=1;jettySize=auto;html=1;entryX=0.451;entryY=1.003;entryDx=0;entryDy=0;entryPerimeter=0;" parent="1" source="7epev9RCpwERPL40yu5S-94" target="7epev9RCpwERPL40yu5S-104" edge="1">
          <mxGeometry relative="1" as="geometry">
            <mxPoint x="1855" y="-499.9999999999998" as="targetPoint" />
          </mxGeometry>
        </mxCell>
        <mxCell id="7epev9RCpwERPL40yu5S-94" value="&lt;span style=&quot;font-size: 17px;&quot;&gt;لیست کلاسی&lt;/span&gt;" style="rounded=1;whiteSpace=wrap;html=1;" parent="1" vertex="1">
          <mxGeometry x="2000" y="-70" width="90" height="40" as="geometry" />
        </mxCell>
        <mxCell id="7epev9RCpwERPL40yu5S-104" value="" style="rounded=0;whiteSpace=wrap;html=1;" parent="1" vertex="1">
          <mxGeometry x="1540" y="-870" width="650" height="370" as="geometry" />
        </mxCell>
        <mxCell id="7epev9RCpwERPL40yu5S-105" value="" style="rounded=0;whiteSpace=wrap;html=1;" parent="1" vertex="1">
          <mxGeometry x="1540" y="-870" width="580" height="60" as="geometry" />
        </mxCell>
        <mxCell id="7epev9RCpwERPL40yu5S-106" value="" style="rounded=0;whiteSpace=wrap;html=1;" parent="1" vertex="1">
          <mxGeometry x="2120" y="-870" width="70" height="370" as="geometry" />
        </mxCell>
        <mxCell id="7epev9RCpwERPL40yu5S-107" value="" style="rounded=0;whiteSpace=wrap;html=1;" parent="1" vertex="1">
          <mxGeometry x="2120" y="-870" width="70" height="60" as="geometry" />
        </mxCell>
        <mxCell id="7epev9RCpwERPL40yu5S-108" value="&lt;font style=&quot;font-size: 17px;&quot;&gt;&lt;b&gt;Navbar&lt;/b&gt;&lt;/font&gt;" style="text;html=1;align=center;verticalAlign=middle;whiteSpace=wrap;rounded=0;" parent="1" vertex="1">
          <mxGeometry x="1560" y="-855" width="60" height="30" as="geometry" />
        </mxCell>
        <mxCell id="7epev9RCpwERPL40yu5S-109" value="کلاس ها" style="rounded=0;whiteSpace=wrap;html=1;" parent="1" vertex="1">
          <mxGeometry x="2120" y="-760" width="70" height="50" as="geometry" />
        </mxCell>
        <mxCell id="7epev9RCpwERPL40yu5S-110" value="داشبورد" style="rounded=0;whiteSpace=wrap;html=1;" parent="1" vertex="1">
          <mxGeometry x="2120" y="-810" width="70" height="50" as="geometry" />
        </mxCell>
        <mxCell id="7epev9RCpwERPL40yu5S-112" value="سال تحصیلی 1400 -1401" style="rounded=1;whiteSpace=wrap;html=1;" parent="1" vertex="1">
          <mxGeometry x="1985" y="-800" width="120" height="60" as="geometry" />
        </mxCell>
        <mxCell id="7epev9RCpwERPL40yu5S-113" value="سال تحصیلی 1401-1402" style="rounded=1;whiteSpace=wrap;html=1;" parent="1" vertex="1">
          <mxGeometry x="1840" y="-800" width="120" height="60" as="geometry" />
        </mxCell>
        <mxCell id="7epev9RCpwERPL40yu5S-114" value="سال تحصیلی 1402-1403" style="rounded=1;whiteSpace=wrap;html=1;" parent="1" vertex="1">
          <mxGeometry x="1690" y="-800" width="120" height="60" as="geometry" />
        </mxCell>
        <mxCell id="7epev9RCpwERPL40yu5S-115" value="سال تحصیلی 99-1400" style="rounded=1;whiteSpace=wrap;html=1;" parent="1" vertex="1">
          <mxGeometry x="1985" y="-710" width="120" height="60" as="geometry" />
        </mxCell>
        <mxCell id="7epev9RCpwERPL40yu5S-116" value="سال تحصیلی 98-99" style="rounded=1;whiteSpace=wrap;html=1;" parent="1" vertex="1">
          <mxGeometry x="1840" y="-710" width="120" height="60" as="geometry" />
        </mxCell>
        <mxCell id="7epev9RCpwERPL40yu5S-117" value="سال تحصیلی 97-98" style="rounded=1;whiteSpace=wrap;html=1;" parent="1" vertex="1">
          <mxGeometry x="1690" y="-710" width="120" height="60" as="geometry" />
        </mxCell>
        <mxCell id="7epev9RCpwERPL40yu5S-118" value="&lt;font style=&quot;font-size: 16px;&quot;&gt;&lt;i&gt;در صورت داشتن چند پایه تکرار به همراه دکمه پایه ها&lt;/i&gt;&lt;/font&gt;" style="text;html=1;align=center;verticalAlign=middle;whiteSpace=wrap;rounded=0;" parent="1" vertex="1">
          <mxGeometry x="160" y="-450" width="475" height="30" as="geometry" />
        </mxCell>
        <mxCell id="7epev9RCpwERPL40yu5S-119" value="" style="rounded=0;whiteSpace=wrap;html=1;" parent="1" vertex="1">
          <mxGeometry x="2280" y="-870" width="650" height="370" as="geometry" />
        </mxCell>
        <mxCell id="7epev9RCpwERPL40yu5S-120" value="" style="rounded=0;whiteSpace=wrap;html=1;" parent="1" vertex="1">
          <mxGeometry x="2280" y="-870" width="580" height="60" as="geometry" />
        </mxCell>
        <mxCell id="7epev9RCpwERPL40yu5S-121" value="" style="rounded=0;whiteSpace=wrap;html=1;" parent="1" vertex="1">
          <mxGeometry x="2860" y="-870" width="70" height="370" as="geometry" />
        </mxCell>
        <mxCell id="7epev9RCpwERPL40yu5S-122" value="" style="rounded=0;whiteSpace=wrap;html=1;" parent="1" vertex="1">
          <mxGeometry x="2860" y="-870" width="70" height="60" as="geometry" />
        </mxCell>
        <mxCell id="7epev9RCpwERPL40yu5S-123" value="&lt;font style=&quot;font-size: 17px;&quot;&gt;&lt;b&gt;Navbar&lt;/b&gt;&lt;/font&gt;" style="text;html=1;align=center;verticalAlign=middle;whiteSpace=wrap;rounded=0;" parent="1" vertex="1">
          <mxGeometry x="2300" y="-855" width="60" height="30" as="geometry" />
        </mxCell>
        <mxCell id="7epev9RCpwERPL40yu5S-124" value="کلاس ها" style="rounded=0;whiteSpace=wrap;html=1;" parent="1" vertex="1">
          <mxGeometry x="2860" y="-760" width="70" height="50" as="geometry" />
        </mxCell>
        <mxCell id="7epev9RCpwERPL40yu5S-125" value="داشبورد" style="rounded=0;whiteSpace=wrap;html=1;" parent="1" vertex="1">
          <mxGeometry x="2860" y="-810" width="70" height="50" as="geometry" />
        </mxCell>
        <mxCell id="7epev9RCpwERPL40yu5S-132" style="edgeStyle=orthogonalEdgeStyle;rounded=0;orthogonalLoop=1;jettySize=auto;html=1;entryX=-0.003;entryY=0.549;entryDx=0;entryDy=0;entryPerimeter=0;" parent="1" source="7epev9RCpwERPL40yu5S-115" target="7epev9RCpwERPL40yu5S-119" edge="1">
          <mxGeometry relative="1" as="geometry" />
        </mxCell>
        <mxCell id="7epev9RCpwERPL40yu5S-138" value="اذز" style="whiteSpace=wrap;html=1;aspect=fixed;" parent="1" vertex="1">
          <mxGeometry x="2540" y="-790" width="70" height="70" as="geometry" />
        </mxCell>
        <mxCell id="7epev9RCpwERPL40yu5S-139" value="اسفند" style="whiteSpace=wrap;html=1;aspect=fixed;" parent="1" vertex="1">
          <mxGeometry x="2540" y="-700" width="70" height="70" as="geometry" />
        </mxCell>
        <mxCell id="7epev9RCpwERPL40yu5S-140" value="خرداد" style="whiteSpace=wrap;html=1;aspect=fixed;" parent="1" vertex="1">
          <mxGeometry x="2540" y="-600" width="70" height="70" as="geometry" />
        </mxCell>
        <mxCell id="7epev9RCpwERPL40yu5S-141" value="ابان" style="whiteSpace=wrap;html=1;aspect=fixed;" parent="1" vertex="1">
          <mxGeometry x="2650" y="-790" width="70" height="70" as="geometry" />
        </mxCell>
        <mxCell id="7epev9RCpwERPL40yu5S-142" value="بهمن" style="whiteSpace=wrap;html=1;aspect=fixed;" parent="1" vertex="1">
          <mxGeometry x="2650" y="-700" width="70" height="70" as="geometry" />
        </mxCell>
        <mxCell id="7epev9RCpwERPL40yu5S-143" value="اردیبهشت" style="whiteSpace=wrap;html=1;aspect=fixed;" parent="1" vertex="1">
          <mxGeometry x="2650" y="-600" width="70" height="70" as="geometry" />
        </mxCell>
        <mxCell id="7epev9RCpwERPL40yu5S-144" value="مهر" style="whiteSpace=wrap;html=1;aspect=fixed;" parent="1" vertex="1">
          <mxGeometry x="2760" y="-790" width="70" height="70" as="geometry" />
        </mxCell>
        <mxCell id="7epev9RCpwERPL40yu5S-145" value="دی" style="whiteSpace=wrap;html=1;aspect=fixed;" parent="1" vertex="1">
          <mxGeometry x="2760" y="-700" width="70" height="70" as="geometry" />
        </mxCell>
        <mxCell id="7epev9RCpwERPL40yu5S-146" value="فروردین" style="whiteSpace=wrap;html=1;aspect=fixed;" parent="1" vertex="1">
          <mxGeometry x="2760" y="-600" width="70" height="70" as="geometry" />
        </mxCell>
        <mxCell id="7epev9RCpwERPL40yu5S-149" value="" style="rounded=0;whiteSpace=wrap;html=1;" parent="1" vertex="1">
          <mxGeometry x="3000" y="-870" width="650" height="370" as="geometry" />
        </mxCell>
        <mxCell id="7epev9RCpwERPL40yu5S-150" value="" style="rounded=0;whiteSpace=wrap;html=1;" parent="1" vertex="1">
          <mxGeometry x="3000" y="-870" width="580" height="60" as="geometry" />
        </mxCell>
        <mxCell id="7epev9RCpwERPL40yu5S-151" value="" style="rounded=0;whiteSpace=wrap;html=1;" parent="1" vertex="1">
          <mxGeometry x="3580" y="-870" width="70" height="370" as="geometry" />
        </mxCell>
        <mxCell id="7epev9RCpwERPL40yu5S-152" value="" style="rounded=0;whiteSpace=wrap;html=1;" parent="1" vertex="1">
          <mxGeometry x="3580" y="-870" width="70" height="60" as="geometry" />
        </mxCell>
        <mxCell id="7epev9RCpwERPL40yu5S-153" value="&lt;font style=&quot;font-size: 17px;&quot;&gt;&lt;b&gt;Navbar&lt;/b&gt;&lt;/font&gt;" style="text;html=1;align=center;verticalAlign=middle;whiteSpace=wrap;rounded=0;" parent="1" vertex="1">
          <mxGeometry x="3020" y="-855" width="60" height="30" as="geometry" />
        </mxCell>
        <mxCell id="7epev9RCpwERPL40yu5S-154" value="کلاس ها" style="rounded=0;whiteSpace=wrap;html=1;" parent="1" vertex="1">
          <mxGeometry x="3580" y="-760" width="70" height="50" as="geometry" />
        </mxCell>
        <mxCell id="7epev9RCpwERPL40yu5S-155" value="داشبورد" style="rounded=0;whiteSpace=wrap;html=1;" parent="1" vertex="1">
          <mxGeometry x="3580" y="-810" width="70" height="50" as="geometry" />
        </mxCell>
        <mxCell id="7epev9RCpwERPL40yu5S-165" style="edgeStyle=orthogonalEdgeStyle;rounded=0;orthogonalLoop=1;jettySize=auto;html=1;entryX=0;entryY=0.595;entryDx=0;entryDy=0;entryPerimeter=0;" parent="1" source="7epev9RCpwERPL40yu5S-145" target="7epev9RCpwERPL40yu5S-149" edge="1">
          <mxGeometry relative="1" as="geometry" />
        </mxCell>
        <mxCell id="7epev9RCpwERPL40yu5S-166" value="" style="verticalLabelPosition=bottom;shadow=0;dashed=0;align=center;html=1;verticalAlign=top;strokeWidth=1;shape=mxgraph.mockup.navigation.scrollBar;strokeColor=#999999;barPos=100;fillColor2=#99ddff;strokeColor2=none;direction=north;" parent="1" vertex="1">
          <mxGeometry x="3560" y="-810" width="20" height="310" as="geometry" />
        </mxCell>
        <mxCell id="7epev9RCpwERPL40yu5S-169" value="تاریخ" style="rounded=1;whiteSpace=wrap;html=1;" parent="1" vertex="1">
          <mxGeometry x="3410" y="-800" width="100" height="30" as="geometry" />
        </mxCell>
        <mxCell id="7epev9RCpwERPL40yu5S-170" value="فعالیت / تکلیف" style="rounded=1;whiteSpace=wrap;html=1;" parent="1" vertex="1">
          <mxGeometry x="3160" y="-800" width="100" height="30" as="geometry" />
        </mxCell>
        <mxCell id="7epev9RCpwERPL40yu5S-171" value="کوییز کلاسی" style="rounded=1;whiteSpace=wrap;html=1;" parent="1" vertex="1">
          <mxGeometry x="3050" y="-800" width="100" height="30" as="geometry" />
        </mxCell>
        <mxCell id="7epev9RCpwERPL40yu5S-173" value="نام&amp;nbsp; و نام خانوادگی" style="rounded=1;whiteSpace=wrap;html=1;" parent="1" vertex="1">
          <mxGeometry x="3270" y="-800" width="130" height="30" as="geometry" />
        </mxCell>
        <mxCell id="7epev9RCpwERPL40yu5S-175" value="99/10/8" style="rounded=1;whiteSpace=wrap;html=1;" parent="1" vertex="1">
          <mxGeometry x="3410" y="-740" width="100" height="30" as="geometry" />
        </mxCell>
        <mxCell id="7epev9RCpwERPL40yu5S-176" value="نقص تکلیف" style="rounded=1;whiteSpace=wrap;html=1;" parent="1" vertex="1">
          <mxGeometry x="3160" y="-740" width="100" height="30" as="geometry" />
        </mxCell>
        <mxCell id="7epev9RCpwERPL40yu5S-177" value="18.5" style="rounded=1;whiteSpace=wrap;html=1;" parent="1" vertex="1">
          <mxGeometry x="3050" y="-740" width="100" height="30" as="geometry" />
        </mxCell>
        <mxCell id="7epev9RCpwERPL40yu5S-178" value="دانش اموز 1" style="rounded=1;whiteSpace=wrap;html=1;" parent="1" vertex="1">
          <mxGeometry x="3270" y="-740" width="130" height="30" as="geometry" />
        </mxCell>
        <mxCell id="7epev9RCpwERPL40yu5S-179" value="99/10/9" style="rounded=1;whiteSpace=wrap;html=1;" parent="1" vertex="1">
          <mxGeometry x="3410" y="-695" width="100" height="30" as="geometry" />
        </mxCell>
        <mxCell id="7epev9RCpwERPL40yu5S-180" value="کامل" style="rounded=1;whiteSpace=wrap;html=1;" parent="1" vertex="1">
          <mxGeometry x="3160" y="-695" width="100" height="30" as="geometry" />
        </mxCell>
        <mxCell id="7epev9RCpwERPL40yu5S-181" value="20" style="rounded=1;whiteSpace=wrap;html=1;" parent="1" vertex="1">
          <mxGeometry x="3050" y="-695" width="100" height="30" as="geometry" />
        </mxCell>
        <mxCell id="7epev9RCpwERPL40yu5S-182" value="دانش اموز 2" style="rounded=1;whiteSpace=wrap;html=1;" parent="1" vertex="1">
          <mxGeometry x="3270" y="-695" width="130" height="30" as="geometry" />
        </mxCell>
        <mxCell id="7epev9RCpwERPL40yu5S-183" value="99/10/10" style="rounded=1;whiteSpace=wrap;html=1;" parent="1" vertex="1">
          <mxGeometry x="3410" y="-650" width="100" height="30" as="geometry" />
        </mxCell>
        <mxCell id="7epev9RCpwERPL40yu5S-184" value="فاقد تکلیف" style="rounded=1;whiteSpace=wrap;html=1;" parent="1" vertex="1">
          <mxGeometry x="3160" y="-650" width="100" height="30" as="geometry" />
        </mxCell>
        <mxCell id="7epev9RCpwERPL40yu5S-185" value="19.75" style="rounded=1;whiteSpace=wrap;html=1;" parent="1" vertex="1">
          <mxGeometry x="3050" y="-650" width="100" height="30" as="geometry" />
        </mxCell>
        <mxCell id="7epev9RCpwERPL40yu5S-186" value="دانش اموز 3" style="rounded=1;whiteSpace=wrap;html=1;" parent="1" vertex="1">
          <mxGeometry x="3270" y="-650" width="130" height="30" as="geometry" />
        </mxCell>
        <mxCell id="7epev9RCpwERPL40yu5S-187" value=".1" style="text;html=1;align=center;verticalAlign=middle;whiteSpace=wrap;rounded=0;" parent="1" vertex="1">
          <mxGeometry x="3500" y="-740" width="60" height="30" as="geometry" />
        </mxCell>
        <mxCell id="7epev9RCpwERPL40yu5S-188" value=".2" style="text;html=1;align=center;verticalAlign=middle;whiteSpace=wrap;rounded=0;" parent="1" vertex="1">
          <mxGeometry x="3500" y="-695" width="60" height="30" as="geometry" />
        </mxCell>
        <mxCell id="7epev9RCpwERPL40yu5S-189" value=".3" style="text;html=1;align=center;verticalAlign=middle;whiteSpace=wrap;rounded=0;" parent="1" vertex="1">
          <mxGeometry x="3500" y="-650" width="60" height="30" as="geometry" />
        </mxCell>
        <mxCell id="7epev9RCpwERPL40yu5S-192" value="" style="rounded=0;whiteSpace=wrap;html=1;" parent="1" vertex="1">
          <mxGeometry x="800" y="-800" width="650" height="370" as="geometry" />
        </mxCell>
        <mxCell id="7epev9RCpwERPL40yu5S-193" value="" style="rounded=0;whiteSpace=wrap;html=1;" parent="1" vertex="1">
          <mxGeometry x="800" y="-800" width="580" height="60" as="geometry" />
        </mxCell>
        <mxCell id="7epev9RCpwERPL40yu5S-194" value="" style="rounded=0;whiteSpace=wrap;html=1;" parent="1" vertex="1">
          <mxGeometry x="1380" y="-800" width="70" height="370" as="geometry" />
        </mxCell>
        <mxCell id="7epev9RCpwERPL40yu5S-195" value="" style="rounded=0;whiteSpace=wrap;html=1;" parent="1" vertex="1">
          <mxGeometry x="1380" y="-800" width="70" height="60" as="geometry" />
        </mxCell>
        <mxCell id="7epev9RCpwERPL40yu5S-196" value="&lt;font style=&quot;font-size: 17px;&quot;&gt;&lt;b&gt;Navbar&lt;/b&gt;&lt;/font&gt;" style="text;html=1;align=center;verticalAlign=middle;whiteSpace=wrap;rounded=0;" parent="1" vertex="1">
          <mxGeometry x="820" y="-785" width="60" height="30" as="geometry" />
        </mxCell>
        <mxCell id="7epev9RCpwERPL40yu5S-197" value="کلاس ها" style="rounded=0;whiteSpace=wrap;html=1;" parent="1" vertex="1">
          <mxGeometry x="1380" y="-690" width="70" height="50" as="geometry" />
        </mxCell>
        <mxCell id="7epev9RCpwERPL40yu5S-198" value="داشبورد" style="rounded=0;whiteSpace=wrap;html=1;" parent="1" vertex="1">
          <mxGeometry x="1380" y="-740" width="70" height="50" as="geometry" />
        </mxCell>
        <mxCell id="7epev9RCpwERPL40yu5S-200" value="نام نام خانوادگی&amp;nbsp; دبیر" style="rounded=1;whiteSpace=wrap;html=1;" parent="1" vertex="1">
          <mxGeometry x="1250" y="-725" width="120" height="45" as="geometry" />
        </mxCell>
        <mxCell id="7epev9RCpwERPL40yu5S-202" value="پایه ها&amp;nbsp;" style="rounded=1;whiteSpace=wrap;html=1;" parent="1" vertex="1">
          <mxGeometry x="1250" y="-650" width="120" height="45" as="geometry" />
        </mxCell>
        <mxCell id="7epev9RCpwERPL40yu5S-203" value="" style="rounded=0;whiteSpace=wrap;html=1;" parent="1" vertex="1">
          <mxGeometry x="800" y="-1210" width="650" height="370" as="geometry" />
        </mxCell>
        <mxCell id="7epev9RCpwERPL40yu5S-204" value="" style="rounded=0;whiteSpace=wrap;html=1;" parent="1" vertex="1">
          <mxGeometry x="800" y="-1210" width="580" height="60" as="geometry" />
        </mxCell>
        <mxCell id="7epev9RCpwERPL40yu5S-205" value="" style="rounded=0;whiteSpace=wrap;html=1;" parent="1" vertex="1">
          <mxGeometry x="1380" y="-1210" width="70" height="370" as="geometry" />
        </mxCell>
        <mxCell id="7epev9RCpwERPL40yu5S-206" value="" style="rounded=0;whiteSpace=wrap;html=1;" parent="1" vertex="1">
          <mxGeometry x="1380" y="-1210" width="70" height="60" as="geometry" />
        </mxCell>
        <mxCell id="7epev9RCpwERPL40yu5S-207" value="&lt;font style=&quot;font-size: 17px;&quot;&gt;&lt;b&gt;Navbar&lt;/b&gt;&lt;/font&gt;" style="text;html=1;align=center;verticalAlign=middle;whiteSpace=wrap;rounded=0;" parent="1" vertex="1">
          <mxGeometry x="820" y="-1195" width="60" height="30" as="geometry" />
        </mxCell>
        <mxCell id="7epev9RCpwERPL40yu5S-208" value="کلاس ها" style="rounded=0;whiteSpace=wrap;html=1;" parent="1" vertex="1">
          <mxGeometry x="1380" y="-1100" width="70" height="50" as="geometry" />
        </mxCell>
        <mxCell id="7epev9RCpwERPL40yu5S-209" value="داشبورد" style="rounded=0;whiteSpace=wrap;html=1;" parent="1" vertex="1">
          <mxGeometry x="1380" y="-1150" width="70" height="50" as="geometry" />
        </mxCell>
        <mxCell id="7epev9RCpwERPL40yu5S-212" style="edgeStyle=orthogonalEdgeStyle;rounded=0;orthogonalLoop=1;jettySize=auto;html=1;entryX=0.692;entryY=1;entryDx=0;entryDy=0;entryPerimeter=0;" parent="1" source="7epev9RCpwERPL40yu5S-202" target="7epev9RCpwERPL40yu5S-203" edge="1">
          <mxGeometry relative="1" as="geometry" />
        </mxCell>
        <mxCell id="7epev9RCpwERPL40yu5S-214" value="برنامه کاری" style="rounded=1;whiteSpace=wrap;html=1;" parent="1" vertex="1">
          <mxGeometry x="1250" y="-575" width="120" height="45" as="geometry" />
        </mxCell>
        <mxCell id="7epev9RCpwERPL40yu5S-215" value="" style="rounded=0;whiteSpace=wrap;html=1;" parent="1" vertex="1">
          <mxGeometry x="80" y="-840" width="650" height="370" as="geometry" />
        </mxCell>
        <mxCell id="7epev9RCpwERPL40yu5S-216" value="" style="rounded=0;whiteSpace=wrap;html=1;" parent="1" vertex="1">
          <mxGeometry x="80" y="-840" width="580" height="60" as="geometry" />
        </mxCell>
        <mxCell id="7epev9RCpwERPL40yu5S-217" value="" style="rounded=0;whiteSpace=wrap;html=1;" parent="1" vertex="1">
          <mxGeometry x="660" y="-840" width="70" height="370" as="geometry" />
        </mxCell>
        <mxCell id="7epev9RCpwERPL40yu5S-218" value="" style="rounded=0;whiteSpace=wrap;html=1;" parent="1" vertex="1">
          <mxGeometry x="660" y="-840" width="70" height="60" as="geometry" />
        </mxCell>
        <mxCell id="7epev9RCpwERPL40yu5S-219" value="&lt;font style=&quot;font-size: 17px;&quot;&gt;&lt;b&gt;Navbar&lt;/b&gt;&lt;/font&gt;" style="text;html=1;align=center;verticalAlign=middle;whiteSpace=wrap;rounded=0;" parent="1" vertex="1">
          <mxGeometry x="100" y="-825" width="60" height="30" as="geometry" />
        </mxCell>
        <mxCell id="7epev9RCpwERPL40yu5S-220" value="کلاس ها" style="rounded=0;whiteSpace=wrap;html=1;" parent="1" vertex="1">
          <mxGeometry x="660" y="-730" width="70" height="50" as="geometry" />
        </mxCell>
        <mxCell id="7epev9RCpwERPL40yu5S-221" value="داشبورد" style="rounded=0;whiteSpace=wrap;html=1;" parent="1" vertex="1">
          <mxGeometry x="660" y="-780" width="70" height="50" as="geometry" />
        </mxCell>
        <mxCell id="7epev9RCpwERPL40yu5S-222" style="edgeStyle=orthogonalEdgeStyle;rounded=0;orthogonalLoop=1;jettySize=auto;html=1;entryX=1.029;entryY=0.63;entryDx=0;entryDy=0;entryPerimeter=0;" parent="1" source="7epev9RCpwERPL40yu5S-214" target="7epev9RCpwERPL40yu5S-217" edge="1">
          <mxGeometry relative="1" as="geometry" />
        </mxCell>
        <mxCell id="7epev9RCpwERPL40yu5S-224" value="شنبه" style="rounded=0;whiteSpace=wrap;html=1;" parent="1" vertex="1">
          <mxGeometry x="570" y="-710" width="90" height="60" as="geometry" />
        </mxCell>
        <mxCell id="7epev9RCpwERPL40yu5S-225" value="یکشنبه" style="rounded=0;whiteSpace=wrap;html=1;" parent="1" vertex="1">
          <mxGeometry x="570" y="-650" width="90" height="60" as="geometry" />
        </mxCell>
        <mxCell id="7epev9RCpwERPL40yu5S-226" value="سه شنبه" style="rounded=0;whiteSpace=wrap;html=1;" parent="1" vertex="1">
          <mxGeometry x="570" y="-590" width="90" height="60" as="geometry" />
        </mxCell>
        <mxCell id="7epev9RCpwERPL40yu5S-227" value="چهارشنبه" style="rounded=0;whiteSpace=wrap;html=1;" parent="1" vertex="1">
          <mxGeometry x="570" y="-530" width="90" height="60" as="geometry" />
        </mxCell>
        <mxCell id="7epev9RCpwERPL40yu5S-230" value="" style="rounded=0;whiteSpace=wrap;html=1;" parent="1" vertex="1">
          <mxGeometry x="80" y="-780" width="580" height="70" as="geometry" />
        </mxCell>
        <mxCell id="7epev9RCpwERPL40yu5S-231" value="" style="endArrow=none;dashed=1;html=1;rounded=0;entryX=1;entryY=0;entryDx=0;entryDy=0;" parent="1" target="7epev9RCpwERPL40yu5S-232" edge="1">
          <mxGeometry width="50" height="50" relative="1" as="geometry">
            <mxPoint x="570" y="-710" as="sourcePoint" />
            <mxPoint x="620" y="-760" as="targetPoint" />
          </mxGeometry>
        </mxCell>
        <mxCell id="7epev9RCpwERPL40yu5S-232" value="" style="rounded=0;whiteSpace=wrap;html=1;" parent="1" vertex="1">
          <mxGeometry x="570" y="-780" width="90" height="70" as="geometry" />
        </mxCell>
        <mxCell id="7epev9RCpwERPL40yu5S-233" value="ایم هفته" style="text;html=1;align=center;verticalAlign=middle;whiteSpace=wrap;rounded=0;" parent="1" vertex="1">
          <mxGeometry x="600" y="-750" width="60" height="30" as="geometry" />
        </mxCell>
        <mxCell id="7epev9RCpwERPL40yu5S-234" value="" style="endArrow=none;html=1;rounded=0;entryX=1;entryY=1;entryDx=0;entryDy=0;" parent="1" target="7epev9RCpwERPL40yu5S-216" edge="1">
          <mxGeometry width="50" height="50" relative="1" as="geometry">
            <mxPoint x="570" y="-710" as="sourcePoint" />
            <mxPoint x="620" y="-760" as="targetPoint" />
          </mxGeometry>
        </mxCell>
        <mxCell id="7epev9RCpwERPL40yu5S-235" value="فعالیت" style="text;html=1;align=center;verticalAlign=middle;whiteSpace=wrap;rounded=0;" parent="1" vertex="1">
          <mxGeometry x="570" y="-780" width="60" height="30" as="geometry" />
        </mxCell>
        <mxCell id="7epev9RCpwERPL40yu5S-236" value="" style="rounded=0;whiteSpace=wrap;html=1;" parent="1" vertex="1">
          <mxGeometry x="480" y="-710" width="90" height="240" as="geometry" />
        </mxCell>
        <mxCell id="7epev9RCpwERPL40yu5S-238" value="" style="rounded=0;whiteSpace=wrap;html=1;" parent="1" vertex="1">
          <mxGeometry x="300" y="-710" width="90" height="240" as="geometry" />
        </mxCell>
        <mxCell id="7epev9RCpwERPL40yu5S-239" value="" style="rounded=0;whiteSpace=wrap;html=1;" parent="1" vertex="1">
          <mxGeometry x="210" y="-710" width="90" height="240" as="geometry" />
        </mxCell>
        <mxCell id="7epev9RCpwERPL40yu5S-241" value="" style="rounded=0;whiteSpace=wrap;html=1;" parent="1" vertex="1">
          <mxGeometry x="120" y="-710" width="90" height="240" as="geometry" />
        </mxCell>
        <mxCell id="7epev9RCpwERPL40yu5S-242" value="" style="rounded=0;whiteSpace=wrap;html=1;" parent="1" vertex="1">
          <mxGeometry x="480" y="-780" width="90" height="70" as="geometry" />
        </mxCell>
        <mxCell id="7epev9RCpwERPL40yu5S-243" value="" style="rounded=0;whiteSpace=wrap;html=1;" parent="1" vertex="1">
          <mxGeometry x="80" y="-710" width="40" height="240" as="geometry" />
        </mxCell>
        <mxCell id="7epev9RCpwERPL40yu5S-244" value="وضعیت" style="rounded=0;whiteSpace=wrap;html=1;" parent="1" vertex="1">
          <mxGeometry x="80" y="-780" width="40" height="70" as="geometry" />
        </mxCell>
        <mxCell id="7epev9RCpwERPL40yu5S-245" value="" style="rounded=0;whiteSpace=wrap;html=1;" parent="1" vertex="1">
          <mxGeometry x="390" y="-780" width="90" height="70" as="geometry" />
        </mxCell>
        <mxCell id="7epev9RCpwERPL40yu5S-246" value="" style="rounded=0;whiteSpace=wrap;html=1;" parent="1" vertex="1">
          <mxGeometry x="300" y="-780" width="90" height="70" as="geometry" />
        </mxCell>
        <mxCell id="7epev9RCpwERPL40yu5S-247" value="" style="rounded=0;whiteSpace=wrap;html=1;" parent="1" vertex="1">
          <mxGeometry x="210" y="-780" width="90" height="70" as="geometry" />
        </mxCell>
        <mxCell id="7epev9RCpwERPL40yu5S-248" value="" style="rounded=0;whiteSpace=wrap;html=1;" parent="1" vertex="1">
          <mxGeometry x="120" y="-780" width="90" height="70" as="geometry" />
        </mxCell>
        <mxCell id="7epev9RCpwERPL40yu5S-249" value="" style="rounded=0;whiteSpace=wrap;html=1;" parent="1" vertex="1">
          <mxGeometry x="480" y="-710" width="90" height="60" as="geometry" />
        </mxCell>
        <mxCell id="7epev9RCpwERPL40yu5S-250" value="" style="rounded=0;whiteSpace=wrap;html=1;" parent="1" vertex="1">
          <mxGeometry x="390" y="-710" width="90" height="60" as="geometry" />
        </mxCell>
        <mxCell id="7epev9RCpwERPL40yu5S-251" value="" style="rounded=0;whiteSpace=wrap;html=1;" parent="1" vertex="1">
          <mxGeometry x="300" y="-710" width="90" height="60" as="geometry" />
        </mxCell>
        <mxCell id="7epev9RCpwERPL40yu5S-252" value="" style="rounded=0;whiteSpace=wrap;html=1;" parent="1" vertex="1">
          <mxGeometry x="210" y="-710" width="90" height="60" as="geometry" />
        </mxCell>
        <mxCell id="7epev9RCpwERPL40yu5S-253" value="" style="rounded=0;whiteSpace=wrap;html=1;" parent="1" vertex="1">
          <mxGeometry x="120" y="-710" width="90" height="60" as="geometry" />
        </mxCell>
        <mxCell id="7epev9RCpwERPL40yu5S-254" value="" style="rounded=0;whiteSpace=wrap;html=1;" parent="1" vertex="1">
          <mxGeometry x="120" y="-650" width="90" height="60" as="geometry" />
        </mxCell>
        <mxCell id="7epev9RCpwERPL40yu5S-256" value="" style="rounded=0;whiteSpace=wrap;html=1;" parent="1" vertex="1">
          <mxGeometry x="210" y="-650" width="90" height="60" as="geometry" />
        </mxCell>
        <mxCell id="7epev9RCpwERPL40yu5S-257" value="" style="rounded=0;whiteSpace=wrap;html=1;" parent="1" vertex="1">
          <mxGeometry x="300" y="-650" width="90" height="60" as="geometry" />
        </mxCell>
        <mxCell id="7epev9RCpwERPL40yu5S-258" value="" style="rounded=0;whiteSpace=wrap;html=1;" parent="1" vertex="1">
          <mxGeometry x="390" y="-650" width="90" height="60" as="geometry" />
        </mxCell>
        <mxCell id="7epev9RCpwERPL40yu5S-259" value="" style="rounded=0;whiteSpace=wrap;html=1;" parent="1" vertex="1">
          <mxGeometry x="480" y="-650" width="90" height="60" as="geometry" />
        </mxCell>
        <mxCell id="7epev9RCpwERPL40yu5S-264" value="" style="rounded=0;whiteSpace=wrap;html=1;" parent="1" vertex="1">
          <mxGeometry x="480" y="-590" width="90" height="60" as="geometry" />
        </mxCell>
        <mxCell id="7epev9RCpwERPL40yu5S-265" value="" style="rounded=0;whiteSpace=wrap;html=1;" parent="1" vertex="1">
          <mxGeometry x="390" y="-590" width="90" height="60" as="geometry" />
        </mxCell>
        <mxCell id="7epev9RCpwERPL40yu5S-266" value="" style="rounded=0;whiteSpace=wrap;html=1;" parent="1" vertex="1">
          <mxGeometry x="300" y="-590" width="90" height="60" as="geometry" />
        </mxCell>
        <mxCell id="7epev9RCpwERPL40yu5S-267" value="" style="rounded=0;whiteSpace=wrap;html=1;" parent="1" vertex="1">
          <mxGeometry x="210" y="-590" width="90" height="60" as="geometry" />
        </mxCell>
        <mxCell id="7epev9RCpwERPL40yu5S-268" value="" style="rounded=0;whiteSpace=wrap;html=1;" parent="1" vertex="1">
          <mxGeometry x="120" y="-590" width="90" height="60" as="geometry" />
        </mxCell>
        <mxCell id="7epev9RCpwERPL40yu5S-269" value="" style="rounded=0;whiteSpace=wrap;html=1;" parent="1" vertex="1">
          <mxGeometry x="120" y="-530" width="90" height="60" as="geometry" />
        </mxCell>
        <mxCell id="7epev9RCpwERPL40yu5S-270" value="" style="rounded=0;whiteSpace=wrap;html=1;" parent="1" vertex="1">
          <mxGeometry x="210" y="-530" width="90" height="60" as="geometry" />
        </mxCell>
        <mxCell id="7epev9RCpwERPL40yu5S-271" value="" style="rounded=0;whiteSpace=wrap;html=1;" parent="1" vertex="1">
          <mxGeometry x="300" y="-530" width="90" height="60" as="geometry" />
        </mxCell>
        <mxCell id="7epev9RCpwERPL40yu5S-272" value="" style="rounded=0;whiteSpace=wrap;html=1;" parent="1" vertex="1">
          <mxGeometry x="390" y="-530" width="90" height="60" as="geometry" />
        </mxCell>
        <mxCell id="7epev9RCpwERPL40yu5S-273" value="" style="rounded=0;whiteSpace=wrap;html=1;" parent="1" vertex="1">
          <mxGeometry x="480" y="-530" width="90" height="60" as="geometry" />
        </mxCell>
        <mxCell id="7epev9RCpwERPL40yu5S-274" value="" style="rounded=0;whiteSpace=wrap;html=1;" parent="1" vertex="1">
          <mxGeometry x="80" y="-710" width="40" height="60" as="geometry" />
        </mxCell>
        <mxCell id="7epev9RCpwERPL40yu5S-275" value="" style="rounded=0;whiteSpace=wrap;html=1;" parent="1" vertex="1">
          <mxGeometry x="80" y="-650" width="40" height="60" as="geometry" />
        </mxCell>
        <mxCell id="7epev9RCpwERPL40yu5S-276" value="" style="rounded=0;whiteSpace=wrap;html=1;" parent="1" vertex="1">
          <mxGeometry x="80" y="-590" width="40" height="60" as="geometry" />
        </mxCell>
        <mxCell id="7epev9RCpwERPL40yu5S-277" value="" style="rounded=0;whiteSpace=wrap;html=1;" parent="1" vertex="1">
          <mxGeometry x="80" y="-530" width="40" height="60" as="geometry" />
        </mxCell>
        <mxCell id="7epev9RCpwERPL40yu5S-278" value="" style="verticalLabelPosition=bottom;verticalAlign=top;html=1;shape=mxgraph.basic.tick" parent="1" vertex="1">
          <mxGeometry x="85" y="-695" width="30" height="30" as="geometry" />
        </mxCell>
        <mxCell id="7epev9RCpwERPL40yu5S-279" value="" style="verticalLabelPosition=bottom;verticalAlign=top;html=1;shape=mxgraph.basic.tick" parent="1" vertex="1">
          <mxGeometry x="85" y="-635" width="30" height="30" as="geometry" />
        </mxCell>
        <mxCell id="7epev9RCpwERPL40yu5S-280" value="" style="verticalLabelPosition=bottom;verticalAlign=top;html=1;shape=mxgraph.basic.tick" parent="1" vertex="1">
          <mxGeometry x="85" y="-575" width="30" height="30" as="geometry" />
        </mxCell>
        <mxCell id="7epev9RCpwERPL40yu5S-284" value="" style="endArrow=none;html=1;rounded=0;" parent="1" edge="1">
          <mxGeometry width="50" height="50" relative="1" as="geometry">
            <mxPoint x="85" y="-485" as="sourcePoint" />
            <mxPoint x="115" y="-515" as="targetPoint" />
          </mxGeometry>
        </mxCell>
        <mxCell id="7epev9RCpwERPL40yu5S-285" value="" style="endArrow=none;html=1;rounded=0;" parent="1" edge="1">
          <mxGeometry width="50" height="50" relative="1" as="geometry">
            <mxPoint x="85" y="-515" as="sourcePoint" />
            <mxPoint x="115" y="-485" as="targetPoint" />
          </mxGeometry>
        </mxCell>
        <mxCell id="rzjlpBgPA3RxBNsnAqXF-1" style="edgeStyle=orthogonalEdgeStyle;rounded=0;orthogonalLoop=1;jettySize=auto;html=1;entryX=0.363;entryY=0.073;entryDx=0;entryDy=0;entryPerimeter=0;" edge="1" parent="1" source="XK6V45ikK95n-LF6XOaC-11" target="XK6V45ikK95n-LF6XOaC-25">
          <mxGeometry relative="1" as="geometry" />
        </mxCell>
      </root>
    </mxGraphModel>
  </diagram>
  <diagram id="o4Ffl0MzcQyHGKaRbb0K" name="Page-2">
    <mxGraphModel dx="875" dy="1624" grid="1" gridSize="10" guides="1" tooltips="1" connect="1" arrows="1" fold="1" page="1" pageScale="1" pageWidth="850" pageHeight="1100" math="0" shadow="0">
      <root>
        <mxCell id="0" />
        <mxCell id="1" parent="0" />
        <mxCell id="pawvE--c4MaPR-ltuQm0-2" value="" style="rounded=0;whiteSpace=wrap;html=1;fontSize=15;" parent="1" vertex="1">
          <mxGeometry x="40" y="40" width="440" height="280" as="geometry" />
        </mxCell>
        <mxCell id="pawvE--c4MaPR-ltuQm0-3" value="" style="rounded=0;whiteSpace=wrap;html=1;fontSize=15;" parent="1" vertex="1">
          <mxGeometry x="40" y="40" width="440" height="40" as="geometry" />
        </mxCell>
        <mxCell id="pawvE--c4MaPR-ltuQm0-6" value="&lt;h1 style=&quot;margin-top: 0px; font-size: 15px;&quot;&gt;School_name&lt;/h1&gt;&lt;p style=&quot;font-size: 15px;&quot;&gt;School_description&lt;/p&gt;" style="text;html=1;whiteSpace=wrap;overflow=hidden;rounded=0;fontSize=15;" parent="1" vertex="1">
          <mxGeometry x="50" y="80" width="180" height="120" as="geometry" />
        </mxCell>
        <mxCell id="pawvE--c4MaPR-ltuQm0-8" value="Grades" style="rounded=1;whiteSpace=wrap;html=1;fontSize=15;" parent="1" vertex="1">
          <mxGeometry x="260" y="100" width="105" height="40" as="geometry" />
        </mxCell>
        <mxCell id="pawvE--c4MaPR-ltuQm0-13" value="" style="rounded=0;whiteSpace=wrap;html=1;fontSize=15;" parent="1" vertex="1">
          <mxGeometry x="560" y="40" width="440" height="280" as="geometry" />
        </mxCell>
        <mxCell id="pawvE--c4MaPR-ltuQm0-14" value="" style="rounded=0;whiteSpace=wrap;html=1;fontSize=15;" parent="1" vertex="1">
          <mxGeometry x="560" y="40" width="440" height="40" as="geometry" />
        </mxCell>
        <mxCell id="pawvE--c4MaPR-ltuQm0-17" value="1st" style="rounded=1;whiteSpace=wrap;html=1;fontSize=15;" parent="1" vertex="1">
          <mxGeometry x="580" y="110" width="80" height="50" as="geometry" />
        </mxCell>
        <mxCell id="pawvE--c4MaPR-ltuQm0-19" value="2nd" style="rounded=1;whiteSpace=wrap;html=1;fontSize=15;" parent="1" vertex="1">
          <mxGeometry x="580" y="180" width="80" height="50" as="geometry" />
        </mxCell>
        <mxCell id="pawvE--c4MaPR-ltuQm0-22" value="3rd" style="rounded=1;whiteSpace=wrap;html=1;fontSize=15;" parent="1" vertex="1">
          <mxGeometry x="580" y="260" width="80" height="50" as="geometry" />
        </mxCell>
        <mxCell id="pawvE--c4MaPR-ltuQm0-23" value="4th" style="rounded=1;whiteSpace=wrap;html=1;fontSize=15;" parent="1" vertex="1">
          <mxGeometry x="690" y="110" width="80" height="50" as="geometry" />
        </mxCell>
        <mxCell id="pawvE--c4MaPR-ltuQm0-24" value="5th" style="rounded=1;whiteSpace=wrap;html=1;fontSize=15;" parent="1" vertex="1">
          <mxGeometry x="690" y="180" width="80" height="50" as="geometry" />
        </mxCell>
        <mxCell id="pawvE--c4MaPR-ltuQm0-25" value="6th" style="rounded=1;whiteSpace=wrap;html=1;fontSize=15;" parent="1" vertex="1">
          <mxGeometry x="690" y="260" width="80" height="50" as="geometry" />
        </mxCell>
        <mxCell id="pawvE--c4MaPR-ltuQm0-26" value="1st" style="rounded=1;whiteSpace=wrap;html=1;fontSize=15;" parent="1" vertex="1">
          <mxGeometry x="580" y="110" width="80" height="50" as="geometry" />
        </mxCell>
        <mxCell id="pawvE--c4MaPR-ltuQm0-27" value="Elemantry" style="text;html=1;align=center;verticalAlign=middle;whiteSpace=wrap;rounded=0;fontSize=15;" parent="1" vertex="1">
          <mxGeometry x="640" y="80" width="70" height="30" as="geometry" />
        </mxCell>
        <mxCell id="pawvE--c4MaPR-ltuQm0-28" value="High" style="text;html=1;align=center;verticalAlign=middle;whiteSpace=wrap;rounded=0;fontSize=15;" parent="1" vertex="1">
          <mxGeometry x="850" y="80" width="70" height="30" as="geometry" />
        </mxCell>
        <mxCell id="pawvE--c4MaPR-ltuQm0-29" value="7th" style="rounded=1;whiteSpace=wrap;html=1;fontSize=15;" parent="1" vertex="1">
          <mxGeometry x="790" y="110" width="80" height="50" as="geometry" />
        </mxCell>
        <mxCell id="pawvE--c4MaPR-ltuQm0-30" value="10th" style="rounded=1;whiteSpace=wrap;html=1;fontSize=15;" parent="1" vertex="1">
          <mxGeometry x="900" y="110" width="80" height="50" as="geometry" />
        </mxCell>
        <mxCell id="pawvE--c4MaPR-ltuQm0-31" value="11th" style="rounded=1;whiteSpace=wrap;html=1;fontSize=15;" parent="1" vertex="1">
          <mxGeometry x="900" y="180" width="80" height="50" as="geometry" />
        </mxCell>
        <mxCell id="pawvE--c4MaPR-ltuQm0-32" value="8th" style="rounded=1;whiteSpace=wrap;html=1;fontSize=15;" parent="1" vertex="1">
          <mxGeometry x="790" y="180" width="80" height="50" as="geometry" />
        </mxCell>
        <mxCell id="pawvE--c4MaPR-ltuQm0-33" value="9th" style="rounded=1;whiteSpace=wrap;html=1;fontSize=15;" parent="1" vertex="1">
          <mxGeometry x="790" y="260" width="80" height="50" as="geometry" />
        </mxCell>
        <mxCell id="pawvE--c4MaPR-ltuQm0-34" value="12th" style="rounded=1;whiteSpace=wrap;html=1;fontSize=15;" parent="1" vertex="1">
          <mxGeometry x="900" y="260" width="80" height="50" as="geometry" />
        </mxCell>
        <mxCell id="pawvE--c4MaPR-ltuQm0-35" value="" style="rounded=0;whiteSpace=wrap;html=1;fontSize=15;" parent="1" vertex="1">
          <mxGeometry x="40" y="-280" width="440" height="280" as="geometry" />
        </mxCell>
        <mxCell id="pawvE--c4MaPR-ltuQm0-36" value="" style="rounded=0;whiteSpace=wrap;html=1;fontSize=15;" parent="1" vertex="1">
          <mxGeometry x="40" y="-280" width="440" height="40" as="geometry" />
        </mxCell>
        <mxCell id="pawvE--c4MaPR-ltuQm0-39" value="" style="rounded=0;whiteSpace=wrap;html=1;fontSize=15;" parent="1" vertex="1">
          <mxGeometry x="1080" y="40" width="440" height="280" as="geometry" />
        </mxCell>
        <mxCell id="pawvE--c4MaPR-ltuQm0-40" value="" style="rounded=0;whiteSpace=wrap;html=1;fontSize=15;" parent="1" vertex="1">
          <mxGeometry x="1080" y="40" width="440" height="40" as="geometry" />
        </mxCell>
        <mxCell id="pawvE--c4MaPR-ltuQm0-41" style="edgeStyle=orthogonalEdgeStyle;rounded=0;orthogonalLoop=1;jettySize=auto;html=1;entryX=-0.008;entryY=0.327;entryDx=0;entryDy=0;entryPerimeter=0;fontSize=15;" parent="1" source="pawvE--c4MaPR-ltuQm0-30" target="pawvE--c4MaPR-ltuQm0-39" edge="1">
          <mxGeometry relative="1" as="geometry" />
        </mxCell>
        <mxCell id="pawvE--c4MaPR-ltuQm0-43" value="Classrooms" style="rounded=1;whiteSpace=wrap;html=1;fontSize=15;" parent="1" vertex="1">
          <mxGeometry x="1247.5" y="102.5" width="105" height="40" as="geometry" />
        </mxCell>
        <mxCell id="pawvE--c4MaPR-ltuQm0-44" value="Students" style="rounded=1;whiteSpace=wrap;html=1;fontSize=15;" parent="1" vertex="1">
          <mxGeometry x="1247.5" y="182.5" width="105" height="40" as="geometry" />
        </mxCell>
        <mxCell id="pawvE--c4MaPR-ltuQm0-52" style="edgeStyle=orthogonalEdgeStyle;rounded=0;orthogonalLoop=1;jettySize=auto;html=1;entryX=0.5;entryY=0;entryDx=0;entryDy=0;fontSize=15;" parent="1" source="pawvE--c4MaPR-ltuQm0-45" target="pawvE--c4MaPR-ltuQm0-51" edge="1">
          <mxGeometry relative="1" as="geometry" />
        </mxCell>
        <mxCell id="pawvE--c4MaPR-ltuQm0-45" value="teachers" style="rounded=1;whiteSpace=wrap;html=1;fontSize=15;" parent="1" vertex="1">
          <mxGeometry x="1247.5" y="267.5" width="105" height="40" as="geometry" />
        </mxCell>
        <mxCell id="pawvE--c4MaPR-ltuQm0-46" value="" style="rounded=0;whiteSpace=wrap;html=1;fontSize=15;" parent="1" vertex="1">
          <mxGeometry x="1080" y="-280" width="440" height="280" as="geometry" />
        </mxCell>
        <mxCell id="pawvE--c4MaPR-ltuQm0-47" value="" style="rounded=0;whiteSpace=wrap;html=1;fontSize=15;" parent="1" vertex="1">
          <mxGeometry x="1080" y="-280" width="440" height="40" as="geometry" />
        </mxCell>
        <mxCell id="pawvE--c4MaPR-ltuQm0-48" value="" style="rounded=0;whiteSpace=wrap;html=1;fontSize=15;" parent="1" vertex="1">
          <mxGeometry x="1610" y="40" width="440" height="280" as="geometry" />
        </mxCell>
        <mxCell id="pawvE--c4MaPR-ltuQm0-49" value="" style="rounded=0;whiteSpace=wrap;html=1;fontSize=15;" parent="1" vertex="1">
          <mxGeometry x="1610" y="40" width="440" height="40" as="geometry" />
        </mxCell>
        <mxCell id="pawvE--c4MaPR-ltuQm0-50" value="" style="rounded=0;whiteSpace=wrap;html=1;fontSize=15;" parent="1" vertex="1">
          <mxGeometry x="1080" y="400" width="440" height="280" as="geometry" />
        </mxCell>
        <mxCell id="pawvE--c4MaPR-ltuQm0-51" value="" style="rounded=0;whiteSpace=wrap;html=1;fontSize=15;" parent="1" vertex="1">
          <mxGeometry x="1080" y="400" width="440" height="40" as="geometry" />
        </mxCell>
        <mxCell id="pawvE--c4MaPR-ltuQm0-55" style="edgeStyle=orthogonalEdgeStyle;rounded=0;orthogonalLoop=1;jettySize=auto;html=1;entryX=0.522;entryY=1.004;entryDx=0;entryDy=0;entryPerimeter=0;fontSize=15;" parent="1" source="pawvE--c4MaPR-ltuQm0-43" target="pawvE--c4MaPR-ltuQm0-46" edge="1">
          <mxGeometry relative="1" as="geometry" />
        </mxCell>
        <mxCell id="pawvE--c4MaPR-ltuQm0-56" style="edgeStyle=orthogonalEdgeStyle;rounded=0;orthogonalLoop=1;jettySize=auto;html=1;entryX=0;entryY=0.577;entryDx=0;entryDy=0;entryPerimeter=0;fontSize=15;" parent="1" source="pawvE--c4MaPR-ltuQm0-44" target="pawvE--c4MaPR-ltuQm0-48" edge="1">
          <mxGeometry relative="1" as="geometry" />
        </mxCell>
        <mxCell id="pawvE--c4MaPR-ltuQm0-168" style="edgeStyle=orthogonalEdgeStyle;rounded=0;orthogonalLoop=1;jettySize=auto;html=1;entryX=1;entryY=0.5;entryDx=0;entryDy=0;fontSize=15;" parent="1" source="pawvE--c4MaPR-ltuQm0-57" target="pawvE--c4MaPR-ltuQm0-153" edge="1">
          <mxGeometry relative="1" as="geometry" />
        </mxCell>
        <mxCell id="pawvE--c4MaPR-ltuQm0-57" value="Classroom 1" style="rounded=1;whiteSpace=wrap;html=1;fontSize=15;" parent="1" vertex="1">
          <mxGeometry x="1110" y="-220" width="80" height="50" as="geometry" />
        </mxCell>
        <mxCell id="pawvE--c4MaPR-ltuQm0-58" value="Classroom&amp;nbsp; 2" style="rounded=1;whiteSpace=wrap;html=1;fontSize=15;" parent="1" vertex="1">
          <mxGeometry x="1110" y="-150" width="80" height="50" as="geometry" />
        </mxCell>
        <mxCell id="pawvE--c4MaPR-ltuQm0-59" value="Classroom&amp;nbsp; 3" style="rounded=1;whiteSpace=wrap;html=1;fontSize=15;" parent="1" vertex="1">
          <mxGeometry x="1110" y="-80" width="80" height="50" as="geometry" />
        </mxCell>
        <mxCell id="pawvE--c4MaPR-ltuQm0-60" value="Classroom&amp;nbsp; 4" style="rounded=1;whiteSpace=wrap;html=1;fontSize=15;" parent="1" vertex="1">
          <mxGeometry x="1220" y="-220" width="80" height="50" as="geometry" />
        </mxCell>
        <mxCell id="pawvE--c4MaPR-ltuQm0-61" value="Classroom&amp;nbsp; 5" style="rounded=1;whiteSpace=wrap;html=1;fontSize=15;" parent="1" vertex="1">
          <mxGeometry x="1220" y="-150" width="80" height="50" as="geometry" />
        </mxCell>
        <mxCell id="pawvE--c4MaPR-ltuQm0-62" value="Classroom&amp;nbsp; 6" style="rounded=1;whiteSpace=wrap;html=1;fontSize=15;" parent="1" vertex="1">
          <mxGeometry x="1220" y="-80" width="80" height="50" as="geometry" />
        </mxCell>
        <mxCell id="pawvE--c4MaPR-ltuQm0-144" style="edgeStyle=orthogonalEdgeStyle;rounded=0;orthogonalLoop=1;jettySize=auto;html=1;entryX=0.849;entryY=1.011;entryDx=0;entryDy=0;entryPerimeter=0;fontSize=15;" parent="1" source="pawvE--c4MaPR-ltuQm0-66" target="pawvE--c4MaPR-ltuQm0-142" edge="1">
          <mxGeometry relative="1" as="geometry">
            <mxPoint x="1460" y="-310" as="targetPoint" />
          </mxGeometry>
        </mxCell>
        <mxCell id="pawvE--c4MaPR-ltuQm0-66" value="add Classroom" style="rounded=1;whiteSpace=wrap;html=1;fontSize=15;" parent="1" vertex="1">
          <mxGeometry x="1420" y="-40" width="80" height="30" as="geometry" />
        </mxCell>
        <mxCell id="pawvE--c4MaPR-ltuQm0-69" value="Add Teacher" style="rounded=1;whiteSpace=wrap;html=1;fontSize=15;" parent="1" vertex="1">
          <mxGeometry x="1430" y="640" width="80" height="30" as="geometry" />
        </mxCell>
        <mxCell id="pawvE--c4MaPR-ltuQm0-70" value="add Student" style="rounded=1;whiteSpace=wrap;html=1;fontSize=15;" parent="1" vertex="1">
          <mxGeometry x="1960" y="280" width="80" height="30" as="geometry" />
        </mxCell>
        <mxCell id="pawvE--c4MaPR-ltuQm0-71" value="Student 1" style="rounded=1;whiteSpace=wrap;html=1;fontSize=15;" parent="1" vertex="1">
          <mxGeometry x="1630" y="100" width="80" height="50" as="geometry" />
        </mxCell>
        <mxCell id="pawvE--c4MaPR-ltuQm0-72" value="Student 2" style="rounded=1;whiteSpace=wrap;html=1;fontSize=15;" parent="1" vertex="1">
          <mxGeometry x="1630" y="170" width="80" height="50" as="geometry" />
        </mxCell>
        <mxCell id="pawvE--c4MaPR-ltuQm0-73" value="Student 3" style="rounded=1;whiteSpace=wrap;html=1;fontSize=15;" parent="1" vertex="1">
          <mxGeometry x="1630" y="240" width="80" height="50" as="geometry" />
        </mxCell>
        <mxCell id="pawvE--c4MaPR-ltuQm0-74" value="Student 4&amp;nbsp;" style="rounded=1;whiteSpace=wrap;html=1;fontSize=15;" parent="1" vertex="1">
          <mxGeometry x="1740" y="100" width="80" height="50" as="geometry" />
        </mxCell>
        <mxCell id="pawvE--c4MaPR-ltuQm0-75" value="Student 5" style="rounded=1;whiteSpace=wrap;html=1;fontSize=15;" parent="1" vertex="1">
          <mxGeometry x="1740" y="170" width="80" height="50" as="geometry" />
        </mxCell>
        <mxCell id="pawvE--c4MaPR-ltuQm0-76" value="Student 6" style="rounded=1;whiteSpace=wrap;html=1;fontSize=15;" parent="1" vertex="1">
          <mxGeometry x="1740" y="240" width="80" height="50" as="geometry" />
        </mxCell>
        <mxCell id="pawvE--c4MaPR-ltuQm0-77" value="Teacher 1" style="rounded=1;whiteSpace=wrap;html=1;fontSize=15;" parent="1" vertex="1">
          <mxGeometry x="1100" y="455" width="80" height="50" as="geometry" />
        </mxCell>
        <mxCell id="pawvE--c4MaPR-ltuQm0-78" value="Teacher&amp;nbsp; 2" style="rounded=1;whiteSpace=wrap;html=1;fontSize=15;" parent="1" vertex="1">
          <mxGeometry x="1100" y="525" width="80" height="50" as="geometry" />
        </mxCell>
        <mxCell id="pawvE--c4MaPR-ltuQm0-79" value="Teacher&amp;nbsp; 3" style="rounded=1;whiteSpace=wrap;html=1;fontSize=15;" parent="1" vertex="1">
          <mxGeometry x="1100" y="595" width="80" height="50" as="geometry" />
        </mxCell>
        <mxCell id="pawvE--c4MaPR-ltuQm0-80" value="Teacher&amp;nbsp; 4" style="rounded=1;whiteSpace=wrap;html=1;fontSize=15;" parent="1" vertex="1">
          <mxGeometry x="1210" y="455" width="80" height="50" as="geometry" />
        </mxCell>
        <mxCell id="pawvE--c4MaPR-ltuQm0-81" value="Teacher&amp;nbsp; 5" style="rounded=1;whiteSpace=wrap;html=1;fontSize=15;" parent="1" vertex="1">
          <mxGeometry x="1210" y="525" width="80" height="50" as="geometry" />
        </mxCell>
        <mxCell id="pawvE--c4MaPR-ltuQm0-82" value="Teacher&amp;nbsp; 6" style="rounded=1;whiteSpace=wrap;html=1;fontSize=15;" parent="1" vertex="1">
          <mxGeometry x="1210" y="595" width="80" height="50" as="geometry" />
        </mxCell>
        <mxCell id="pawvE--c4MaPR-ltuQm0-142" value="" style="rounded=0;whiteSpace=wrap;html=1;fontSize=15;" parent="1" vertex="1">
          <mxGeometry x="1080" y="-600" width="440" height="280" as="geometry" />
        </mxCell>
        <mxCell id="pawvE--c4MaPR-ltuQm0-143" value="" style="rounded=0;whiteSpace=wrap;html=1;fontSize=15;" parent="1" vertex="1">
          <mxGeometry x="1080" y="-600" width="440" height="40" as="geometry" />
        </mxCell>
        <mxCell id="pawvE--c4MaPR-ltuQm0-145" value="Grade" style="rounded=1;whiteSpace=wrap;html=1;fontSize=15;" parent="1" vertex="1">
          <mxGeometry x="1095" y="-490" width="110" height="40" as="geometry" />
        </mxCell>
        <mxCell id="pawvE--c4MaPR-ltuQm0-146" value="Classroom name" style="rounded=1;whiteSpace=wrap;html=1;fontSize=15;" parent="1" vertex="1">
          <mxGeometry x="1095" y="-430" width="110" height="40" as="geometry" />
        </mxCell>
        <mxCell id="pawvE--c4MaPR-ltuQm0-147" value="Teacher" style="rounded=1;whiteSpace=wrap;html=1;fontSize=15;" parent="1" vertex="1">
          <mxGeometry x="1095" y="-370" width="110" height="40" as="geometry" />
        </mxCell>
        <mxCell id="pawvE--c4MaPR-ltuQm0-149" value="Students" style="rounded=1;whiteSpace=wrap;html=1;fontSize=15;" parent="1" vertex="1">
          <mxGeometry x="1242.5" y="-550" width="110" height="40" as="geometry" />
        </mxCell>
        <mxCell id="pawvE--c4MaPR-ltuQm0-150" value="School name" style="rounded=1;whiteSpace=wrap;html=1;fontSize=15;" parent="1" vertex="1">
          <mxGeometry x="1095" y="-550" width="110" height="40" as="geometry" />
        </mxCell>
        <mxCell id="pawvE--c4MaPR-ltuQm0-153" value="" style="rounded=0;whiteSpace=wrap;html=1;fontSize=15;" parent="1" vertex="1">
          <mxGeometry x="590" y="-280" width="440" height="280" as="geometry" />
        </mxCell>
        <mxCell id="pawvE--c4MaPR-ltuQm0-154" value="" style="rounded=0;whiteSpace=wrap;html=1;fontSize=15;" parent="1" vertex="1">
          <mxGeometry x="590" y="-280" width="440" height="40" as="geometry" />
        </mxCell>
        <mxCell id="pawvE--c4MaPR-ltuQm0-163" value="Grade" style="rounded=1;whiteSpace=wrap;html=1;fontSize=15;" parent="1" vertex="1">
          <mxGeometry x="601.25" y="-170" width="110" height="40" as="geometry" />
        </mxCell>
        <mxCell id="pawvE--c4MaPR-ltuQm0-164" value="Classroom name" style="rounded=1;whiteSpace=wrap;html=1;fontSize=15;" parent="1" vertex="1">
          <mxGeometry x="601.25" y="-110" width="110" height="40" as="geometry" />
        </mxCell>
        <mxCell id="pawvE--c4MaPR-ltuQm0-165" value="Teacher" style="rounded=1;whiteSpace=wrap;html=1;fontSize=15;" parent="1" vertex="1">
          <mxGeometry x="601.25" y="-50" width="110" height="40" as="geometry" />
        </mxCell>
        <mxCell id="pawvE--c4MaPR-ltuQm0-166" value="Students" style="rounded=1;whiteSpace=wrap;html=1;fontSize=15;" parent="1" vertex="1">
          <mxGeometry x="748.75" y="-230" width="110" height="40" as="geometry" />
        </mxCell>
        <mxCell id="pawvE--c4MaPR-ltuQm0-167" value="School name" style="rounded=1;whiteSpace=wrap;html=1;fontSize=15;" parent="1" vertex="1">
          <mxGeometry x="601.25" y="-230" width="110" height="40" as="geometry" />
        </mxCell>
        <mxCell id="pawvE--c4MaPR-ltuQm0-152" value="checklist" style="rounded=1;whiteSpace=wrap;html=1;fontSize=15;" parent="1" vertex="1">
          <mxGeometry x="890" y="-230" width="110" height="40" as="geometry" />
        </mxCell>
        <mxCell id="pawvE--c4MaPR-ltuQm0-169" value="" style="rounded=0;whiteSpace=wrap;html=1;fontSize=15;" parent="1" vertex="1">
          <mxGeometry x="2120" y="40" width="440" height="280" as="geometry" />
        </mxCell>
        <mxCell id="pawvE--c4MaPR-ltuQm0-170" value="" style="rounded=0;whiteSpace=wrap;html=1;fontSize=15;" parent="1" vertex="1">
          <mxGeometry x="2120" y="40" width="440" height="40" as="geometry" />
        </mxCell>
        <mxCell id="pawvE--c4MaPR-ltuQm0-176" style="edgeStyle=orthogonalEdgeStyle;rounded=0;orthogonalLoop=1;jettySize=auto;html=1;entryX=-0.001;entryY=0.629;entryDx=0;entryDy=0;entryPerimeter=0;fontSize=15;" parent="1" source="pawvE--c4MaPR-ltuQm0-70" target="pawvE--c4MaPR-ltuQm0-169" edge="1">
          <mxGeometry relative="1" as="geometry" />
        </mxCell>
        <mxCell id="pawvE--c4MaPR-ltuQm0-177" value="Grade" style="rounded=1;whiteSpace=wrap;html=1;fontSize=15;" parent="1" vertex="1">
          <mxGeometry x="2140" y="90" width="110" height="40" as="geometry" />
        </mxCell>
        <mxCell id="pawvE--c4MaPR-ltuQm0-178" value="fname - lname" style="rounded=1;whiteSpace=wrap;html=1;fontSize=15;" parent="1" vertex="1">
          <mxGeometry x="2140" y="160" width="110" height="40" as="geometry" />
        </mxCell>
        <mxCell id="yvj-mHr1tobuz1JEVch8-1" value="" style="rounded=0;whiteSpace=wrap;html=1;fontSize=15;" parent="1" vertex="1">
          <mxGeometry x="480" y="-690" width="578.75" height="370" as="geometry" />
        </mxCell>
        <mxCell id="yvj-mHr1tobuz1JEVch8-2" value="" style="rounded=0;whiteSpace=wrap;html=1;fontSize=15;" parent="1" vertex="1">
          <mxGeometry x="480" y="-690" width="580" height="60" as="geometry" />
        </mxCell>
        <mxCell id="yvj-mHr1tobuz1JEVch8-8" value="" style="verticalLabelPosition=bottom;shadow=0;dashed=0;align=center;html=1;verticalAlign=top;strokeWidth=1;shape=mxgraph.mockup.navigation.scrollBar;strokeColor=#999999;barPos=100;fillColor2=#99ddff;strokeColor2=none;direction=north;fontSize=15;" parent="1" vertex="1">
          <mxGeometry x="1040" y="-630" width="20" height="310" as="geometry" />
        </mxCell>
        <mxCell id="yvj-mHr1tobuz1JEVch8-9" value="تاریخ" style="rounded=1;whiteSpace=wrap;html=1;fontSize=15;" parent="1" vertex="1">
          <mxGeometry x="890" y="-620" width="100" height="30" as="geometry" />
        </mxCell>
        <mxCell id="yvj-mHr1tobuz1JEVch8-10" value="فعالیت / تکلیف" style="rounded=1;whiteSpace=wrap;html=1;fontSize=15;" parent="1" vertex="1">
          <mxGeometry x="640" y="-620" width="100" height="30" as="geometry" />
        </mxCell>
        <mxCell id="yvj-mHr1tobuz1JEVch8-11" value="کوییز کلاسی" style="rounded=1;whiteSpace=wrap;html=1;fontSize=15;" parent="1" vertex="1">
          <mxGeometry x="530" y="-620" width="100" height="30" as="geometry" />
        </mxCell>
        <mxCell id="yvj-mHr1tobuz1JEVch8-12" value="نام&amp;nbsp; و نام خانوادگی" style="rounded=1;whiteSpace=wrap;html=1;fontSize=15;" parent="1" vertex="1">
          <mxGeometry x="750" y="-620" width="130" height="30" as="geometry" />
        </mxCell>
        <mxCell id="yvj-mHr1tobuz1JEVch8-13" value="99/10/8" style="rounded=1;whiteSpace=wrap;html=1;fontSize=15;" parent="1" vertex="1">
          <mxGeometry x="890" y="-560" width="100" height="30" as="geometry" />
        </mxCell>
        <mxCell id="yvj-mHr1tobuz1JEVch8-14" value="نقص تکلیف" style="rounded=1;whiteSpace=wrap;html=1;fontSize=15;" parent="1" vertex="1">
          <mxGeometry x="640" y="-560" width="100" height="30" as="geometry" />
        </mxCell>
        <mxCell id="yvj-mHr1tobuz1JEVch8-15" value="18.5" style="rounded=1;whiteSpace=wrap;html=1;fontSize=15;" parent="1" vertex="1">
          <mxGeometry x="530" y="-560" width="100" height="30" as="geometry" />
        </mxCell>
        <mxCell id="yvj-mHr1tobuz1JEVch8-16" value="دانش اموز 1" style="rounded=1;whiteSpace=wrap;html=1;fontSize=15;" parent="1" vertex="1">
          <mxGeometry x="750" y="-560" width="130" height="30" as="geometry" />
        </mxCell>
        <mxCell id="yvj-mHr1tobuz1JEVch8-17" value="99/10/9" style="rounded=1;whiteSpace=wrap;html=1;fontSize=15;" parent="1" vertex="1">
          <mxGeometry x="890" y="-515" width="100" height="30" as="geometry" />
        </mxCell>
        <mxCell id="yvj-mHr1tobuz1JEVch8-18" value="کامل" style="rounded=1;whiteSpace=wrap;html=1;fontSize=15;" parent="1" vertex="1">
          <mxGeometry x="640" y="-515" width="100" height="30" as="geometry" />
        </mxCell>
        <mxCell id="yvj-mHr1tobuz1JEVch8-19" value="20" style="rounded=1;whiteSpace=wrap;html=1;fontSize=15;" parent="1" vertex="1">
          <mxGeometry x="530" y="-515" width="100" height="30" as="geometry" />
        </mxCell>
        <mxCell id="yvj-mHr1tobuz1JEVch8-20" value="دانش اموز 2" style="rounded=1;whiteSpace=wrap;html=1;fontSize=15;" parent="1" vertex="1">
          <mxGeometry x="750" y="-515" width="130" height="30" as="geometry" />
        </mxCell>
        <mxCell id="yvj-mHr1tobuz1JEVch8-21" value="99/10/10" style="rounded=1;whiteSpace=wrap;html=1;fontSize=15;" parent="1" vertex="1">
          <mxGeometry x="890" y="-470" width="100" height="30" as="geometry" />
        </mxCell>
        <mxCell id="yvj-mHr1tobuz1JEVch8-22" value="فاقد تکلیف" style="rounded=1;whiteSpace=wrap;html=1;fontSize=15;" parent="1" vertex="1">
          <mxGeometry x="640" y="-470" width="100" height="30" as="geometry" />
        </mxCell>
        <mxCell id="yvj-mHr1tobuz1JEVch8-23" value="19.75" style="rounded=1;whiteSpace=wrap;html=1;fontSize=15;" parent="1" vertex="1">
          <mxGeometry x="530" y="-470" width="100" height="30" as="geometry" />
        </mxCell>
        <mxCell id="yvj-mHr1tobuz1JEVch8-24" value="دانش اموز 3" style="rounded=1;whiteSpace=wrap;html=1;fontSize=15;" parent="1" vertex="1">
          <mxGeometry x="750" y="-470" width="130" height="30" as="geometry" />
        </mxCell>
        <mxCell id="yvj-mHr1tobuz1JEVch8-25" value=".1" style="text;html=1;align=center;verticalAlign=middle;whiteSpace=wrap;rounded=0;fontSize=15;" parent="1" vertex="1">
          <mxGeometry x="980" y="-560" width="60" height="30" as="geometry" />
        </mxCell>
        <mxCell id="yvj-mHr1tobuz1JEVch8-26" value=".2" style="text;html=1;align=center;verticalAlign=middle;whiteSpace=wrap;rounded=0;fontSize=15;" parent="1" vertex="1">
          <mxGeometry x="980" y="-515" width="60" height="30" as="geometry" />
        </mxCell>
        <mxCell id="yvj-mHr1tobuz1JEVch8-27" value=".3" style="text;html=1;align=center;verticalAlign=middle;whiteSpace=wrap;rounded=0;fontSize=15;" parent="1" vertex="1">
          <mxGeometry x="980" y="-470" width="60" height="30" as="geometry" />
        </mxCell>
        <mxCell id="yvj-mHr1tobuz1JEVch8-29" style="edgeStyle=orthogonalEdgeStyle;rounded=0;orthogonalLoop=1;jettySize=auto;html=1;entryX=0.795;entryY=1;entryDx=0;entryDy=0;entryPerimeter=0;fontSize=15;" parent="1" source="pawvE--c4MaPR-ltuQm0-152" target="yvj-mHr1tobuz1JEVch8-1" edge="1">
          <mxGeometry relative="1" as="geometry" />
        </mxCell>
        <mxCell id="yvj-mHr1tobuz1JEVch8-30" value="" style="rounded=0;whiteSpace=wrap;html=1;fontSize=15;" parent="1" vertex="1">
          <mxGeometry x="1620" y="-280" width="440" height="280" as="geometry" />
        </mxCell>
        <mxCell id="yvj-mHr1tobuz1JEVch8-31" value="" style="rounded=0;whiteSpace=wrap;html=1;fontSize=15;" parent="1" vertex="1">
          <mxGeometry x="1620" y="-280" width="440" height="40" as="geometry" />
        </mxCell>
        <mxCell id="yvj-mHr1tobuz1JEVch8-32" value="Grade" style="rounded=1;whiteSpace=wrap;html=1;fontSize=15;" parent="1" vertex="1">
          <mxGeometry x="1640" y="-230" width="110" height="40" as="geometry" />
        </mxCell>
        <mxCell id="yvj-mHr1tobuz1JEVch8-33" value="fname - lname" style="rounded=1;whiteSpace=wrap;html=1;fontSize=15;" parent="1" vertex="1">
          <mxGeometry x="1640" y="-160" width="110" height="40" as="geometry" />
        </mxCell>
        <mxCell id="yvj-mHr1tobuz1JEVch8-35" style="edgeStyle=orthogonalEdgeStyle;rounded=0;orthogonalLoop=1;jettySize=auto;html=1;entryX=0.545;entryY=1;entryDx=0;entryDy=0;entryPerimeter=0;fontSize=15;" parent="1" source="pawvE--c4MaPR-ltuQm0-74" target="yvj-mHr1tobuz1JEVch8-30" edge="1">
          <mxGeometry relative="1" as="geometry" />
        </mxCell>
        <mxCell id="yvj-mHr1tobuz1JEVch8-36" value="" style="rounded=0;whiteSpace=wrap;html=1;fontSize=15;" parent="1" vertex="1">
          <mxGeometry x="570" y="400" width="440" height="280" as="geometry" />
        </mxCell>
        <mxCell id="yvj-mHr1tobuz1JEVch8-37" value="" style="rounded=0;whiteSpace=wrap;html=1;fontSize=15;" parent="1" vertex="1">
          <mxGeometry x="570" y="400" width="440" height="40" as="geometry" />
        </mxCell>
        <mxCell id="yvj-mHr1tobuz1JEVch8-38" value="Name" style="rounded=1;whiteSpace=wrap;html=1;fontSize=15;" parent="1" vertex="1">
          <mxGeometry x="590" y="450" width="110" height="40" as="geometry" />
        </mxCell>
        <mxCell id="yvj-mHr1tobuz1JEVch8-39" value="Classes" style="rounded=1;whiteSpace=wrap;html=1;fontSize=15;" parent="1" vertex="1">
          <mxGeometry x="590" y="520" width="110" height="40" as="geometry" />
        </mxCell>
        <mxCell id="yvj-mHr1tobuz1JEVch8-40" style="edgeStyle=orthogonalEdgeStyle;rounded=0;orthogonalLoop=1;jettySize=auto;html=1;entryX=0.995;entryY=0.354;entryDx=0;entryDy=0;entryPerimeter=0;fontSize=15;" parent="1" source="pawvE--c4MaPR-ltuQm0-77" target="yvj-mHr1tobuz1JEVch8-36" edge="1">
          <mxGeometry relative="1" as="geometry" />
        </mxCell>
        <mxCell id="yvj-mHr1tobuz1JEVch8-41" value="Grades" style="rounded=1;whiteSpace=wrap;html=1;fontSize=15;" parent="1" vertex="1">
          <mxGeometry x="590" y="595" width="110" height="40" as="geometry" />
        </mxCell>
        <mxCell id="yvj-mHr1tobuz1JEVch8-42" value="" style="rounded=0;whiteSpace=wrap;html=1;fontSize=15;" parent="1" vertex="1">
          <mxGeometry x="1080" y="750" width="440" height="280" as="geometry" />
        </mxCell>
        <mxCell id="yvj-mHr1tobuz1JEVch8-43" value="" style="rounded=0;whiteSpace=wrap;html=1;fontSize=15;" parent="1" vertex="1">
          <mxGeometry x="1080" y="750" width="440" height="40" as="geometry" />
        </mxCell>
        <mxCell id="yvj-mHr1tobuz1JEVch8-44" value="Name" style="rounded=1;whiteSpace=wrap;html=1;fontSize=15;" parent="1" vertex="1">
          <mxGeometry x="1100" y="800" width="110" height="40" as="geometry" />
        </mxCell>
        <mxCell id="yvj-mHr1tobuz1JEVch8-47" style="edgeStyle=orthogonalEdgeStyle;rounded=0;orthogonalLoop=1;jettySize=auto;html=1;entryX=0.827;entryY=-0.061;entryDx=0;entryDy=0;entryPerimeter=0;fontSize=15;" parent="1" source="pawvE--c4MaPR-ltuQm0-69" target="yvj-mHr1tobuz1JEVch8-43" edge="1">
          <mxGeometry relative="1" as="geometry" />
        </mxCell>
        <mxCell id="yvj-mHr1tobuz1JEVch8-48" value="salary_per_hour" style="rounded=1;whiteSpace=wrap;html=1;fontSize=15;" parent="1" vertex="1">
          <mxGeometry x="1100" y="870" width="110" height="40" as="geometry" />
        </mxCell>
        <mxCell id="lxnOMxlLYkvvpfOoe0Pt-1" value="&lt;font style=&quot;font-size: 17px;&quot;&gt;&lt;b&gt;Classrooms&lt;/b&gt;&lt;/font&gt;" style="text;html=1;align=center;verticalAlign=middle;whiteSpace=wrap;rounded=0;fontSize=15;" parent="1" vertex="1">
          <mxGeometry x="1242.5" y="-275" width="115" height="30" as="geometry" />
        </mxCell>
        <mxCell id="lxnOMxlLYkvvpfOoe0Pt-2" value="&lt;font style=&quot;font-size: 17px;&quot;&gt;&lt;b&gt;Students&lt;/b&gt;&lt;/font&gt;" style="text;html=1;align=center;verticalAlign=middle;whiteSpace=wrap;rounded=0;fontSize=15;" parent="1" vertex="1">
          <mxGeometry x="1772.5" y="50" width="115" height="30" as="geometry" />
        </mxCell>
        <mxCell id="lxnOMxlLYkvvpfOoe0Pt-3" value="&lt;font style=&quot;font-size: 17px;&quot;&gt;&lt;b&gt;Teachers&lt;/b&gt;&lt;/font&gt;" style="text;html=1;align=center;verticalAlign=middle;whiteSpace=wrap;rounded=0;fontSize=15;" parent="1" vertex="1">
          <mxGeometry x="1237.5" y="405" width="115" height="30" as="geometry" />
        </mxCell>
        <mxCell id="lxnOMxlLYkvvpfOoe0Pt-4" value="&lt;font style=&quot;font-size: 17px;&quot;&gt;&lt;b&gt;Grades&lt;/b&gt;&lt;/font&gt;" style="text;html=1;align=center;verticalAlign=middle;whiteSpace=wrap;rounded=0;fontSize=15;" parent="1" vertex="1">
          <mxGeometry x="722.5" y="45" width="115" height="30" as="geometry" />
        </mxCell>
        <mxCell id="aUpkBkcGd2tWxB-axnYH-1" style="edgeStyle=orthogonalEdgeStyle;rounded=0;orthogonalLoop=1;jettySize=auto;html=1;entryX=-0.008;entryY=0.427;entryDx=0;entryDy=0;entryPerimeter=0;" edge="1" parent="1" source="pawvE--c4MaPR-ltuQm0-8" target="pawvE--c4MaPR-ltuQm0-13">
          <mxGeometry relative="1" as="geometry" />
        </mxCell>
      </root>
    </mxGraphModel>
  </diagram>
</mxfile>
